<?xml version="1.0" encoding="utf-8"?>
<!-- Generator: Adobe Illustrator 24.2.3, SVG Export Plug-In . SVG Version: 6.00 Build 0)  -->
<svg version="1.1" id="Layer_1" xmlns="http://www.w3.org/2000/svg" xmlns:xlink="http://www.w3.org/1999/xlink" x="0px" y="0px"
	 viewBox="0 0 584 194.3" style="enable-background:new 0 0 584 194.3;" xml:space="preserve">
<style type="text/css">
	.st0{fill:#DFAA44;}
	.st1{fill:#E0AB44;}
</style>
<rect y="-0.6" width="584" height="194.3"/>
<g>
	<path class="st0" d="M403.8,430.5c0.2-0.2,1.4-1.5,1.5-1.7c0.3-0.4,0.5-0.8,0.8-1.2c0.2-0.3,0.2-0.5,0.1-0.8
		c-0.2-0.3-0.5-0.3-0.9-0.1c-0.5,0.2-0.9,0.4-1.3,0.8c-1.9,1.5-3.3,3.4-4.7,5.3c-0.6,0.8-1.1,1.5-1.5,2.3c-0.3,0.4-0.6,0.6-1,0.6
		c-0.2,0-0.5,0-0.7,0c-1.8,0-1.7,0-1-1.8c0.1-0.2,0.2-0.3,0.3-0.5c0.3-0.5,0.1-0.6-0.4-0.4c-0.6,0.3-1.1,0.3-1.5,0.2
		c-0.7-0.1-1.3,0.1-1.8,0.6c-1.6,1.2-3.5,1.9-5.2,2.1s-3.1-0.5-3.3-2.6c-0.1-1.1-0.1-1.1-1.2-0.3c-1.5,1-2.8,2-4.5,2.6
		c-1.4,0.4-2-0.1-1.7-1.4c0.1-0.3,0.2-0.5,0.3-0.8c0.1-0.2,0.2-0.5,0-0.5c-0.3-0.1-0.5,0.1-0.7,0.3c-0.7,0.5-1.5,1-2.1,1.5
		c-0.6,0.4-1.3,0.8-1.9,1.1c-0.8,0.3-1.2,0-1.2-0.7c0.1-0.6,0.4-1.2,0.7-1.7c0.7-1.2,1.5-2.3,2.1-3.4c0.6-0.9,0.9-1.7,1.3-2.6
		c0.4-1-0.1-1.4-1.2-0.9c-0.8,0.3-1.5,0.7-2.1,1.4c-1.9,1.5-3.1,3.3-4.3,5.1c-0.2,0.2-0.3,0.5-0.5,0.7c-1.2,1.5-1.4,1.7-3.1,1.6
		c-0.8,0-0.8-0.2-0.4-0.9c0.3-0.5,0.8-1.1,1-1.5c0.1-0.3,0.4-0.5,0.2-0.8c-0.3-0.2-0.5,0.2-0.8,0.3c-1.6,1-3.3,1.9-5,2.6
		c-2,0.8-3.9,0.8-5.2-0.2c-0.3-0.2-0.5-0.5-0.6-0.8c-0.2-0.5-0.5-0.5-1-0.2c-0.9,0.6-1.8,1-2.8,1.5c-0.7,0.3-1.2,0.4-1.4-0.3
		c0.1-1,0.8-2,0.5-3c0-0.1,0.1-0.3,0.2-0.3c1.5-1.4,1.8-3.2,3.1-4.6c0.4-0.5,0.4-1.1,0.9-1.5c0.3-0.3,0.2-0.6,0-0.8
		c-0.2-0.3-0.5-0.3-0.8-0.1c-2.1,0.9-4.1,2.1-5.5,4c-0.8,1.1-1.5,2.1-1.5,3.3c-0.1,1.1,0.7,1.5,1.8,0.9c0.4-0.2,0.7-0.4,1.1-0.5
		c0.3-0.1,0.7-0.3,0.8,0c0.2,0.3-0.2,0.5-0.4,0.7c-0.3,0.3-0.6,0.6-1,0.7c-0.1,0-0.2,0.1-0.3,0.2c-0.7,0.3-1.2,0.8-1.8,1.1
		c-0.8,0.3-1.5,0.6-2.2,0.5c-1.2,0-1.6-0.7-1.5-1.7c0.4-2.9,2.1-5.5,4.8-7.6c1.3-1,2.6-1.6,3.9-2.2c0.9-0.3,2.3-0.8,3.1-0.7
		c1.2-0.2,2.1,0.1,2.9,0.4c0.4,0.1,0.2,0.6,0,1c-0.6,1.2-1.3,2.2-1.8,3.4c-0.7,1.3-1.4,2.3-1.8,3.6c-0.3,0.9-0.3,1.2,0.7,0.7
		c1.2-0.5,2.2-1.4,3.3-2.1c0.3-0.2,0.5-0.4,0.7-0.5c0.9-0.5,1.3-1.1,1.4-1.9c0.2-1.8,1.5-3.5,3.3-4.4c0.9-0.4,2.1-0.6,2.9-0.5
		s0.4,1-0.3,1.6c-0.5,0.5-1.1,0.8-1.6,0.9c-0.8,0.1-0.4,0.5-0.4,0.9c0.1,0.8,0.3,1.1,0.7,1.7c0.3,0.4,0.6,0.8,0.8,1.4
		c0.2,0.6,0.1,1.3-0.6,2c-0.2,0.2-0.3,0.3-0.2,0.4c0.1,0.2,0.4,0,0.5-0.1c1-0.5,1.9-1.2,2.9-1.7c1-0.7,1.3-1.6,1.8-2.6
		c1.5-2.4,3-4.8,4.5-7.3c0.7-1.1,1.4-2.2,2.1-3.3c0.8-1.1,1.8-1.7,3-1.6c0.8,0,1.2,0.3,0.7,1c-1.5,2.3-3.1,4.7-4.6,6.9
		c-0.7,1.1-1.3,2-1.9,3.1c-0.1,0.2-0.3,0.4-0.1,0.5c0.2,0.1,0.4-0.1,0.6-0.3c1.4-1.1,2.8-2,4.5-2.4c0.3-0.1,0.5,0,0.7-0.1
		c1.6-0.3,2.3,0.6,1.5,1.8c-0.9,1.5-1.9,3.2-2.9,4.6c-0.4,0.6-0.8,1.2-1.1,1.7c-0.1,0.2-0.1,0.4,0.1,0.5s0.4,0,0.6-0.2
		c1.8-1.2,2.6-1.7,4.3-3.9c0.2-0.5,1.4-2.3,1.7-2.7c0.8-1.1,1.8-1.3,2.8-1.4c0.5,0,0.6,0.3,0.4,0.7c-0.4,0.8-0.9,1.5-1.4,2.1
		c-1,1.5-1.9,3.1-2.8,4.6c-0.3,0.4-0.4,0.9-0.5,1.4c-0.2,0.6,0.3,0.7,0.7,0.3c1.2-0.8,2.3-1.5,3.5-2.4c0.3-0.2,0.5-0.5,0.6-0.8
		c1.5-3.4,4.7-5.3,7.9-5.9c0.9-0.2,1.6-0.3,2.5-0.3c0.4,0,0.9,0,0.8,0.4c-0.1,0.5-0.6,0.5-1,0.5c-4,0-7.3,3.6-7.2,7.1
		c0.1,1.6,1.9,2.2,3.7,1.3c0.6-0.3,1-0.6,0.5-1.1c-0.7-0.8-0.8-1.7-0.7-2.9c0.2-1.5,1.5-2.8,2.9-3.1c1.7-0.4,2.9,0.4,2.7,1.6
		c-0.2,1.3-0.9,2.4-1.8,3.5c-0.2,0.3-0.7,0.5-0.4,0.8c0.3,0.2,0.7,0.1,1-0.1c1-0.6,1.9-1.2,2.5-2.2c0.6-1.2,1.4-2.3,2.1-3.5
		c0.7-1.1,1.5-1.8,2.9-1.8c0.9,0,1.1,0.2,0.5,1.1c-0.5,0.7-1,1.5-1.4,2.1c-0.1,0.2-0.3,0.4-0.1,0.5c0.2,0.2,0.4-0.1,0.6-0.3
		c1.1-1,2.1-1.8,3.4-2.5c0.9-0.5,1.7-0.9,2.6-1.2c0.7-0.2,1.4-0.2,1.6,0.3c0.4,0.5,0.2,1.3-0.2,2c-1.1,1.8-2.2,3.7-3.5,5.4
		c-0.3,0.4-0.4,0.5-0.4,0.9c0.5,0,0.7-0.2,1-0.5c0.9-0.6,1.8-1.2,2.6-1.8c0.2-0.1,0.4-0.3,0.6-0.2c0.3,0.1,0.1,0.3,0.1,0.5
		c-0.1,0.4-0.4,0.8-0.8,1.1c-2,1.4-4,2.8-6.1,3.9c-0.4,0.2-0.7,0.3-1.1,0.4c-0.8,0.2-1.2-0.2-1-0.9
		C401.6,433.4,402.8,432,403.8,430.5C404.3,430.2,403.6,430.9,403.8,430.5z"/>
	<path class="st0" d="M400,426.2c-0.8,1.4-1.5,2.6-2.4,4c-0.7,1-1.6,1.5-2.7,2c-0.4,0.1-0.7,0.2-0.8-0.1c-0.1-0.3-0.4-0.5-0.2-0.7
		c1.1-1,1.6-2.1,1.9-3.2c0.3-1.2,0.4-1.8-0.8-1.8c-1.5-0.1-2.7,0.5-3.3,1.5c-0.9,1.5-0.8,2.9-0.1,4c0.5,0.8,0.4,1-0.7,1.5
		c-1.8,1-3.5,0.4-3.7-1.3c-0.4-2.6,1.7-5.7,4.8-7c0.9-0.4,1.7-0.5,2.6-0.5c0.2,0,0.5,0,0.6-0.3s-0.3-0.3-0.5-0.3
		c-3.3-0.1-7.4,1.4-9.6,4.5c-0.2,0.2-0.3,0.4-0.4,0.6c-0.8,2.2-2.9,3-4.7,4.3c-0.6,0.4-1.1,0-0.9-0.7c0.2-0.9,0.8-1.6,1.3-2.5
		c1-1.6,2-3.3,3.1-4.9c0.6-0.9,0.5-1.1-0.4-1.1c-1.1,0-1.8,0.6-2.4,1.4c-0.7,1-1.4,1.9-1.8,3c-0.4,0.7-0.8,1.2-1.5,1.6
		c-0.9,0.6-1.7,1.2-2.5,1.8c-0.3,0.2-0.6,0.5-0.9,0.3s-0.2-0.5,0.1-0.8c0.6-1.1,1.3-2,1.8-3c0.6-1,1.3-1.8,1.8-2.8
		c0.9-1.5,0.6-2-1.1-1.9c-0.2,0-0.5,0-0.7,0c-0.1-0.1-0.1-0.1,0.1-0.3c1-0.3,1.8-0.4,2.2,0.3c0.4,0.8,0,1.5-0.6,2.3
		c-1,1.5-1.9,2.9-2.9,4.5c-0.3,0.4-0.3,0.8-0.4,1.3c1.5-1.1,3.2-1.7,4.2-3.4c0.6-1.1,1.3-2,1.9-3.1c0.9-1.4,2.5-1.7,3.6-1.6
		c0.4,0,0.5,0.3,0.2,0.6c-1,1.5-1.9,2.9-2.8,4.4c-0.8,1.2-1.5,2.3-1.9,3.7c-0.1,0.2-0.3,0.5-0.1,0.7c0.3,0.2,0.5-0.1,0.7-0.3
		c1-0.7,1.9-1.4,2.9-2c0.7-0.5,0.9-1.2,1.3-1.8c1.6-2.9,4.9-4.7,7.8-5.2c0.9-0.2,1.7-0.4,2.6-0.4c0.5,0,1,0,0.9,0.5
		c-0.2,0.5-0.7,0.8-1.2,0.8c-1.3,0-3.1,0.2-4.3,1c-2.2,1.4-3.1,4.6-2.4,6.4c0.5,1.3,1.7,1.5,3.2,0.8c0.6-0.3,0.9-0.6,0.5-1
		c-0.8-0.8-0.8-1.8-0.6-3c0.2-1.2,1.1-2.1,2.3-2.8c1.1-0.5,2.6-0.4,3.2,0.2c0.7,0.8,0.6,2.1-0.3,3.3c-0.5,0.8-1.1,1.5-1.5,2.1
		c0.8,0.1,2.1-0.6,2.7-1.5s1.1-1.7,1.6-2.6c0.5-0.8,0.9-1.5,1.5-2.1C400.6,425.8,400.2,426,400,426.2z"/>
	<path class="st0" d="M376.3,423.6c0,0.1-0.1,0.2-0.1,0.3c-1.8,0.5-3.4,1.6-4.9,2.9c-0.2,0.2-0.5,0.6-0.7,0.5
		c-0.3-0.2-0.2-0.5,0-0.8c1.1-1.6,2.3-3.4,3.3-5c1.2-1.8,2.2-3.7,3.5-5.5c0.5-0.7,0.2-0.9-0.5-0.9c-1.1,0-1.9,0.5-2.6,1.5
		c-1.3,2-2.5,4-3.8,6c-1.4,2.1-2.6,4.4-4,6.6c-0.3,0.4-0.7,0.7-1.1,0.9c-1.1,0.6-2,1.3-3.1,1.8c-0.2,0.1-0.4,0.4-0.6,0.2
		c-0.1-0.1,0.1-0.3,0.2-0.5c1.1-1.2,1-2.1,0.4-3c-0.6-0.8-1-1.5-1.2-2.3c-0.1-0.5-0.2-1.2,0.9-1.3c0.3,0,0.5-0.2,0.8-0.3
		c0.7-0.3,1.3-0.7,1.3-1.4c0-0.6-0.7-0.4-1.2-0.4c-2.8,0-4.9,2.6-5,4.6c0,0.8-0.3,1.2-1,1.7c-1.4,1-2.6,1.9-4.1,2.8
		c-0.5,0.3-1.1,0.7-1.5,0.4c-0.4-0.3-0.1-0.8,0.2-1.2c0.8-1.9,2-3.9,3.1-5.8c0.2-0.3,0.3-0.5,0.4-0.7c0.4-0.7,0.3-1-0.5-1.2
		c-1.6-0.3-3.4,0-5.1,0.5c-0.2,0.1-0.4,0.1-0.4-0.1c1.5-0.5,2.8-1,4.3-1c0.9,0,1.5,0.3,2.1,0.5c0.3,0.1,0.5,0.3,0.3,0.7
		c-0.8,1.4-1.5,2.6-2.1,3.9c-0.6,1.1-1.3,2.2-1.7,3.3c-0.4,0.9-0.2,1,0.8,0.6c1.7-0.9,3.2-2.1,4.7-3.3c0.3-0.2,0.3-0.3,0.3-0.5
		c0.1-1.2,0.4-2.3,1.3-3.4s1.7-1.6,3-1.9c0.6-0.1,1.2-0.4,1.7-0.3c0.5,0,0.8,0.2,0.8,0.6c0.1,0.4-0.2,0.9-0.7,1.2
		c-0.5,0.4-1.1,0.8-1.6,0.8c-0.6,0.1-0.7,0.4-0.6,0.8c0.1,0.8,0.5,1.4,0.8,1.9c0.2,0.3,0.4,0.5,0.5,0.8c0.4,0.8,0.8,1.5-0.5,2.8
		c2.4-1.1,4.3-2.3,5.2-4.5c0.7-1.4,1.6-2.8,2.5-4.2c0.8-1.4,1.5-2.6,2.3-4c0.7-1.1,1.5-2.2,2.3-3.2c0.7-0.7,2.4-1.1,3.1-0.7
		c0.3,0.2,0.3,0.5,0.1,0.8c-0.7,1.1-1.5,2.1-2,3.3c-1.1,1.8-2.3,3.6-3.4,5.5c-0.3,0.6-0.9,1.1-1.1,1.8
		C373,425.1,374.4,423.9,376.3,423.6z"/>
	<path class="st0" d="M371,427.8c0.8-0.8,1.6-1.4,2.6-1.5c1-0.2,1.4,0.3,1,1.2c-0.7,1.5-1.5,2.9-2.4,4.5c-0.6,1-1.4,1.8-1.6,2.9
		c-0.3,0.9,0.1,1.2,1.1,0.8c1.5-0.5,2.6-1.5,3.9-2.3c0.4-0.3,0.9-0.9,1.3-0.7c0.3,0.2-0.2,0.8-0.3,1.2c-0.2,0.7-0.8,1.5-0.1,1.9
		c0.7,0.5,1.5-0.6,2.4-0.9c1.5-0.6,2.6-1.3,3.9-2.2c0.9-0.6,1-0.2,1,0.7c0,2.9,2.2,2.3,5.2,1.3c1.3-0.4,2.2-0.4,3.3-1.3
		c0.5-0.3,0.5-0.7,1-0.6c0.6,0.1,1.5,0.3,2.2,0s0.8,0.4,0.6,0.9c-0.2,0.5-0.5,0.9-0.7,1.3c-0.1,0.3-0.3,0.5-0.2,0.7
		c0.4,0.5,1.2-0.8,1.9-0.7c0.5,0,0.7,0.7,0.9,0.4c1.6-2.4,2.3-5,4.6-7.2c0.5-0.4,1.7-0.9,2.2-1.2c0.5-0.2,1.6-0.6,2-0.4
		c0.4,0.3-0.2,1.2-0.4,1.6c-0.2,0.4-0.5,0.8-0.9,1.1c0.1-0.4,0.3-0.8,0.6-1.1c0.2-0.3,0.3-0.5,0.1-0.7c-0.2-0.2-0.5-0.1-0.8,0
		c-0.6,0.3-1.2,0.7-1.6,1.1c-2,1.8-3.6,4.1-5.1,6.2c-0.4,0.5-0.6,1.3-1.2,1.4c-0.9,0.2-1.7,0.1-2.5,0c-0.4,0-0.3-0.4-0.2-0.6
		c0.2-0.7,0.4-1.4,1-1.9c-0.3-0.2-0.6,0.2-0.9,0.2c-1.5-0.3-2.7,0.5-4.1,1.4c-1.1,0.7-2.2,1.1-3.3,1.4c-2.3,0.6-4.1-0.5-4.2-2.6
		c0-0.9-0.4-0.6-1-0.2c-1.5,1-2.8,1.8-4.5,2.6c-1.6,0.7-2.3-0.1-2.1-1.5c0.1-0.3,0.5-0.8,0.2-1c-0.4-0.1-0.8,0.4-1.1,0.6
		c-1,0.6-1.9,1.4-3,1.8c-0.6,0.3-1.1,0.5-1.4,0.2c-0.4-0.3-0.4-0.8-0.2-1.4c0.5-1.1,1.2-2.2,1.8-3.3c0.9-1.4,1.6-2.6,2-4
		c0.2-0.8-0.1-1.1-1-0.7c-0.7,0.3-2.2,0.9-2.7,1.5C370.4,428.1,371.1,427.8,371,427.8z"/>
	<path class="st0" d="M348.2,416.1c-0.4,0.6-0.9,0.8-1.5,0.7c-1.2-0.1-2.4-0.2-3.6-0.4c-0.7-0.1-1.2,0.1-1.5,0.9
		c-0.9,1.8-1.8,3.6-2.7,5.4c-0.4,0.7-0.2,0.9,0.5,0.8c1.3-0.2,2.3,0,3.5,0.1c0.6,0,1.5-0.2,1.2,0.8c-0.2,0.8-1.4,1.5-2.1,1.5
		c-1.3,0-2.5,0-3.8,0c-0.7,0-1.1,0.1-1.5,0.9c-1.4,2.3-2.8,4.7-4.7,6.9c-2.4,2.6-5.4,4-8.4,3.6c-1.9-0.3-2.8-2.6-1.5-4.2
		c0.8-1,2-1.5,3-1.4c0.5,0.1,0.5,0.3,0.4,0.8c-0.3,0.7-0.6,1.4-0.7,2c-0.1,0.5-0.1,1,0.5,1.1s1.1,0.1,1.7-0.3c1.3-1,2.1-2.1,3-3.3
		c1-1.4,1.7-2.6,2.6-4c0.1,0,0.2,0,0.3,0c0.2,0.3,0,0.7-0.2,1c-1.2,1.8-2.3,3.7-3.9,5.4c-0.5,0.5-1,1-1.5,1.3
		c-0.9,0.5-1.6,0.8-2.4,0.5s-0.9-1.1-0.8-1.8c0.1-0.4,0.3-0.8,0.4-1.3s-0.1-0.6-0.6-0.5c-0.6,0.2-1.1,0.5-1.4,1.2
		c-0.5,1,0.1,2.4,1,2.7c2.6,0.8,5.9-0.6,8-3c1.7-1.9,3.1-4.1,4.4-6.2c0.9-1.5,1.4-1.8,2.9-1.8c1.1,0,2,0.1,3.2-0.1
		c0.2,0,0.3,0,0.5-0.1c0.4-0.1,0.8-0.3,0.9-0.6c0.1-0.4-0.4-0.3-0.7-0.3c-1.2,0-2.3,0-3.5-0.1c-1.1,0-1.4-0.5-0.8-1.5
		c1.1-1.7,1.7-3.6,2.8-5.3c0.8-1.3,1.2-1.5,2.5-1.5c0.9,0,1.7,0.2,2.6,0.2c0.7,0,1.5-0.2,2.1-0.2C348.3,415.9,348.3,416,348.2,416.1
		z"/>
	<path class="st0" d="M400,426.2c0.2-0.3,0.3-0.5,0.4-0.8c0.7-0.9,2.5-1.5,3.2-1.3c0.6,0.3,0.1,0.8-0.2,1.3c-0.5,0.7-0.9,1.4-1.4,2
		c-0.1,0.1-0.1,0.2-0.1,0.4c1.1-0.8,1.9-1.5,3-2.2s2.1-1.3,3.3-1.5c0.9-0.3,1.5-0.3,1.9,0.3s0.3,1.3-0.2,2c-1.3,1.8-2.4,3.7-3.7,5.6
		c-0.2,0.2-0.3,0.5-0.2,0.8c1.2-0.5,2.1-1.5,3.3-2.1c0.5-0.3,1-1,1.3-0.5s-0.2,1.2-0.9,1.6c-1.6,1.3-3.3,2.3-5.1,3.4
		c-0.6,0.3-1.1,0.6-1.6,0.9s-1.1,0.5-1.5,0.2c-0.5-0.3-0.3-0.8-0.1-1.4c0.5-1.5,1.6-3.1,2.6-4.5c0.2-0.3,0.3-0.7,0.7-0.9
		c-0.1,0.5-0.4,0.9-0.7,1.4c-1,1.4-1.9,2.7-2.4,4.2c-0.3,0.8,0.2,0.3,0.9,0.2c1-0.1,1.7-0.9,2.5-1.4c1.5-0.9,2.3-1.2,3.7-2.2
		c0.6-0.4,1.4-0.7,1.4-1.3c-1.2,0.8-2.1,1.5-3.2,2.1c-0.4,0.3-0.9,0.8-1.2,0.5c-0.3-0.3,0.1-0.8,0.3-1.3c0.7-1.1,1.4-2,2-3
		c0.6-0.9,1.3-1.7,1.5-2.6c0.6-1.4,0.3-1.8-1.3-1.6c-1.4,0.2-2.5,1-3.8,1.7c-1,0.7-1.9,1.5-2.8,2.3c-0.2,0.2-0.5,0.6-0.8,0.4
		s0-0.5,0.2-0.8c0.6-0.9,1.2-1.8,1.7-2.7c0.3-0.5,0.2-0.6-0.3-0.6C401.4,424.7,401,424.9,400,426.2
		C400.3,426.1,400.1,426.2,400,426.2z"/>
	<path class="st0" d="M348.2,416.1c0-0.1,0.1-0.2,0.1-0.3c-0.1-0.3,0.1-0.6,0.4-0.8c0.6-0.6,0.3-0.7-0.3-0.7c-2.7,0-5.3-0.3-8.1,0
		c-2.8,0.2-5.6,0.7-8.5,2.2c-0.9,0.5-1.6,1.1-2.3,1.6c-1.5,1.4-2,3.4-1.3,4.6c0.4,0.5,0.8,1,1.4,1.4c0.2,0.2,0.4,0.5,0.8,0.1
		c0.4-0.3,0.4-0.7,0.3-1s-0.3-0.4-0.5-0.5c-0.5-0.5-0.7-1.1-0.7-1.7c0-1.1,0.8-1.9,1.8-2.3c0.1,0,0.2,0,0.2,0.1
		c-1.5,1.7-1.6,2.7-0.3,3.8c0.6,0.5,0.2,2-0.7,2.6c-0.3,0.2-0.6,0.2-0.8,0c-1.3-0.8-2.3-1.6-2.6-3.2c-0.4-1.7,0.7-3.4,2.3-4.7
		c1.7-1.5,3.7-2.3,5.7-2.9c3.7-1.1,7.3-1.1,10.7-1.1c1.4,0,2.6,0,4,0c0.8,0,0.9,0.3,0.3,1S348.9,415.7,348.2,416.1z"/>
	<path class="st0" d="M371,427.8c0.1,0,0.2,0,0.2,0c-1.9,1.6-3.3,3.7-4.5,5.7c-1,1.6-1.6,2-3.4,1.9c-1,0-1.1-0.3-0.5-1.3
		c0.4-0.6,1-1.3,1-2c-1.5,0.9-3,1.7-4.5,2.5c-2.5,1.3-4.7,1.5-6.5,0.3c-0.2-0.1-0.4-0.3-0.4-0.5c-0.2-0.7-0.6-0.8-1.4-0.2
		c-0.8,0.5-1.6,0.9-2.4,1.3c-1,0.4-1.5,0.2-1.5-0.7c0-0.3-0.1-0.5-0.1-0.8s0.1-0.5,0.2-0.8c-0.4,0-0.7,0.4-1,0.3
		c0.3-0.3,0.6-0.5,0.8-0.7c0.3-0.2,0.6-0.5,0.9-0.3c0.2,0.1,0,0.5-0.1,0.7c-0.2,0.6-0.4,1.2-0.4,1.6c0.5,0.6,1.2,0.3,1.8-0.1
		c0.9-0.4,1.6-0.9,2.4-1.4c0.4-0.3,0.7-0.3,0.9,0.1c0.8,1.6,3,2.2,5.4,1.3c1.9-0.8,3.9-1.8,5.7-3c0.3-0.2,0.6-0.6,0.9-0.3
		c0.2,0.2-0.1,0.6-0.3,0.8c-0.6,0.7-0.8,1.5-1.3,2.1c-0.3,0.4-0.2,0.6,0.3,0.6c1.4,0.1,1.8-0.1,2.7-1.4c1.4-1.9,2.4-4,4.4-5.6
		C370.6,428,370.9,427.9,371,427.8z"/>
	<path class="st0" d="M332.6,428c-0.1,0-0.1,0-0.2,0c0.1-0.1,0.1-0.3,0.2-0.3c0.6-0.8,0.5-1.1-0.5-0.8c-0.4,0.1-0.7,0-0.8-0.4
		c-0.1-0.4,0.1-0.8,0.5-1.1c0.5-0.5,1.1-0.7,1.5-0.8c1.2-0.1,1.5-0.9,2-1.6c0.9-1.5,1.7-3.2,2.9-4.7c0.5-0.7,1.2-1.1,1.8-1.7
		c-1.1-0.1-2,0-3.1,0.2c-1.9,0.4-3.9,1.2-5.6,2.3l-0.1-0.1c0.1-0.6,0.7-0.9,1.2-1.2c1.5-0.9,3-1.5,4.5-1.6c1-0.2,2-0.4,2.9-0.3
		c0.4,0,0.8,0,0.9,0.4s-0.3,0.8-0.6,1.1c-1.7,1.3-2.5,3.1-3.5,4.6c-0.4,0.7-0.9,1.4-1.2,2c-0.3,0.6-0.9,1-1.5,1.2
		c-0.4,0.1-0.7,0.3-1.1,0.4c-0.3,0.1-0.7,0.2-0.7,0.5c-0.1,0.3,0.4,0.2,0.6,0.2c0.5,0,0.8,0.2,0.7,0.7
		C333.6,427.3,333.3,427.8,332.6,428z"/>
	<path class="st0" d="M385.4,419.4c0.4-1.1,1.5-1.9,2.4-1.9s1.2,0.5,1,1.2c-0.4,0.9-1.6,1.7-2.7,1.7
		C385.4,420.5,385.1,420.1,385.4,419.4z"/>
	<path class="st0" d="M349,423.9c0.2,0,0.3,0,0.4,0.1c-0.4,0.5-0.9,0.5-1.4,0.7c-2.6,1.2-4.6,3-6.2,5.2c-0.8,1.2-1.2,2.5-1.3,3.7
		c-0.1,1.5,1.4,1.8,3.1,1.2c0.2-0.1,0.4-0.2,0.6-0.3c0.4,0,0.7-0.6,1.1-0.3c-2.2,1.5-4.6,1.7-4.9,0.2c-0.2-1.2-0.1-2.4,0.7-3.7
		C342.9,427.6,345.6,425.4,349,423.9z"/>
	<path class="st0" d="M345.3,434.3c-0.4-0.1-0.7,0.4-1.1,0.3c0.6-0.4,1.1-0.8,1.7-0.9C345.9,434,345.6,434.1,345.3,434.3z"/>
	<path d="M356.3,434.5c-0.4,0-0.8,0-1.1-0.2c-1.5-0.6-1.4-1.8,0.3-3.2c0.2-0.2,0.5-0.3,0.7-0.5c1.6-1.3,1.6-1.3,2.2,0.2
		c0.2,0.5,0.4,1,0.4,1.5c0.1,1.3-0.7,1.9-2,2C356.6,434.4,356.5,434.4,356.3,434.5C356.3,434.4,356.3,434.4,356.3,434.5z"/>
	<path class="st0" d="M347.4,435c-0.3-0.5-0.1-1.1,0.2-1.5c0.3-0.7,0.2-0.9-0.6-0.5c0.2-0.2,0.3-0.3,0.6-0.7
		c-0.7,0.3-1.1,0.6-1.5,0.8c-1.5,0.8-2.5,0.3-2.3-1.1c0.2-1.8,1.5-3.4,3-4.8c1.3-1.2,2.6-2,4.2-2.6c0.1,0,0.1-0.1,0.2-0.1
		c0.6-0.2,1.2-0.3,1.5,0s-0.1,0.8-0.3,1.3c-1,1.6-1.8,3.5-3,5s-0.9,2.6-1.5,4C347.5,434.7,347.5,434.9,347.4,435z"/>
	<path class="st0" d="M392.4,428.9c0.2-0.7,0.5-1.3,1.2-1.5c0.6-0.2,1.2-0.3,1.5,0.1c0.4,0.5,0.4,1.1-0.2,1.7
		c-0.4,0.5-0.6,1.1-1.1,1.5c-0.7,0.6-0.9,0.7-1.3,0.1C392.2,430.3,392,429.7,392.4,428.9z"/>
	<path class="st0" d="M332.6,428c0.2-0.3,0.5-0.5,0.6-0.8c0.3-0.5,0.5-1-0.5-0.7c-0.5,0.1-1,0.3-1-0.3s0.5-0.9,1.1-1.1
		c0.4-0.2,0.9-0.3,1.3-0.4c0.6-0.1,1.1-0.5,1.3-1c0.7-1.3,1.5-2.4,2-3.6c0.8-1.3,1.5-2.4,2.8-3.4c0.3-0.2,0.6-0.4,0.5-0.7
		c-0.1-0.3-0.4-0.2-0.7-0.2c-2.9,0.2-5.9,0.7-8.7,2.9c-1.7,1.4-2,2.7-0.9,3.9c0.8,0.7,0.8,1.1,0.1,2.1c-0.2,0.3-0.3,0.5-0.6,0.3
		c-1.4-0.9-2.6-1.7-2.5-3.7s1.5-3.4,3.4-4.6c2-1.4,4.3-2,6.5-2.4c4.3-0.8,8.1-0.3,12.1-0.4c0.6,0,0.7,0.2,0.2,0.7
		c-0.5,0.4-0.9,0.8-1.3,1.3c-0.5,0.5-1,0.6-1.5,0.6c-1.3-0.1-2.4-0.2-3.7-0.3c-0.7-0.1-1.1,0.1-1.5,0.8c-1,1.9-2,3.9-3.1,5.8
		c-0.5,0.9-0.4,1.1,0.5,1.1c1.5,0,2.8,0,4.3,0.1c0.8,0,0.9,0.4,0.2,1c-0.5,0.5-1,0.8-1.5,0.8c-1.2,0-2.3,0.1-3.5,0.1
		c-1.5,0-1.6,0.2-2.4,1.5c-1.5,2.6-3,5.1-5.4,7.4c-2.1,1.9-5.5,2.9-7.7,2.1c-1.3-0.5-1.5-2.3-0.6-3.7c0.5-0.6,1.7-1.2,2.3-1.1
		c0.4,0.1,0.3,0.4,0.2,0.7c-0.2,0.8-0.7,1.5-0.5,2.2c0.3,1.1,1.3,1.4,2.5,0.5c1.1-0.7,1.7-1.6,2.4-2.5
		C330.6,431.3,331.8,429.8,332.6,428z"/>
	<path d="M344.3,431.1c1-2.9,4.4-5.8,7.3-6.6c0.3-0.1,0.6-0.2,0.8,0c0.2,0.2-0.2,0.5-0.3,0.8c-1.1,1.8-2,3.6-3.1,5.4
		c-0.8,1.3-2.1,1.8-3.5,2.3c-1.1,0.3-1.5-0.2-1.3-1.2C344.2,431.5,344.3,431.2,344.3,431.1z"/>
	<path d="M394.6,429.1c-0.1,0.5-0.6,1.1-1.1,1.6c-0.4,0.5-0.6,0.4-0.8,0.1c-0.3-0.6-0.5-1.2-0.2-1.8c0.3-0.9,0.9-1.4,1.5-1.4
		C394.9,427.5,395,427.9,394.6,429.1z"/>
</g>
<g>
	<path class="st0" d="M359.9,405.4c-0.2,0.5-0.3,0.9-0.5,1.5c1.8-0.8,3.2-1.9,4.7-2.9c1.5-1.1,2.6-2.1,2.8-3.9c0.3-1.6,1.5-3,3.2-4
		c0.9-0.5,1.8-0.6,2.7-0.7c0.6,0,1,0.2,1.2,0.7s-0.4,1-0.9,1.4s-1,0.7-1.5,0.8c-1,0.2-0.9,0.7-0.8,1.2c0.3,1,0.8,1.7,1.4,2.6
		c0.5,0.6,0.6,1.4,0.2,2.2c-0.1,0.2-0.3,0.5-0.1,0.6c0.2,0.1,0.5-0.1,0.7-0.3c1.2-0.8,2.5-1.2,3.2-2.4c0.9-1.4,1.7-2.8,2.5-4.2
		c0.9-1.5,1.8-2.9,2.6-4.4c1-1.6,2-3.4,3.2-5c1-1.4,2.8-2,4-1.4c0.3,0.1,0.3,0.3,0.2,0.6c-1.1,1.6-2,3.3-3,4.9
		c-1.3,1.9-2.4,3.9-3.7,5.8c-0.3,0.4-0.5,0.8-0.9,1.4c0.9-0.6,1.5-1.1,2.1-1.5c1.3-0.9,2.6-1.5,4.1-1.8c1.8-0.5,2.8,0.8,1.8,2.3
		c-1,1.6-2.1,3.2-3.1,4.8c-0.5,0.7-1.1,1.5-0.8,1.9c0.3,0.3,1.1-0.6,1.6-0.9c2.2-1.2,3-3.2,4.3-5c1.2-1.8,2.2-2.7,4.2-2.7
		c0.7,0,0.9,0.3,0.5,0.9c-0.9,1.5-1.7,2.8-2.6,4.2c-0.9,1.4-1.5,2.7-2.3,4.1c-0.2,0.3-0.3,0.7,0,0.9c0.3,0.2,0.6-0.1,0.8-0.3
		c1.6-1.1,3.6-2,4.5-3.8c0.7-1.3,1.5-2.4,2.3-3.7c1.2-1.8,2-2.2,4-2.2c0.6,0,0.8,0.3,0.5,0.8c-0.4,0.9-1,1.5-1.5,2.4
		c-0.2-0.1-0.2-0.3-0.2-0.5c0-0.5,0.4-0.9,0.6-1.4c0.3-0.5,0.1-0.6-0.5-0.5c-0.7,0.1-1.3,0.4-1.7,1.1c-1.1,1.4-1.8,2.7-2.7,4.2
		c-0.5,0.8-1.1,1.5-1.8,2c-1,0.7-1.9,1.5-2.9,2.1c-0.6,0.4-1.2,0.6-1.6,0.3c-0.5-0.3-0.5-0.8-0.3-1.3c0.6-1.7,1.7-3.3,2.6-4.8
		c0.6-1,1.2-1.9,1.8-2.9c0.5-0.7,0.1-0.7-0.5-0.6c-0.8,0.1-1.3,0.6-1.7,1.2c-0.8,0.9-1.3,1.9-1.8,2.9s-1.2,1.7-2.1,2.3
		c-0.8,0.5-1.5,1.1-2.3,1.6c-0.6,0.4-1.2,0.8-1.7,0.5c-0.6-0.4-0.3-1.1,0.1-1.5c0.7-1.2,1.5-2.3,2.2-3.5c0.6-0.9,1.2-1.7,1.6-2.6
		c0.5-1,0.3-1.4-0.8-1.4s-2,0.4-3,1c-1.2,0.7-2.2,1.4-3.2,2.2c-0.4,0.3-0.8,0.7-1.2,0.5c-0.4-0.2-0.2-0.6,0.1-1
		c1.3-2.1,2.5-4.3,3.9-6.3c1.1-1.6,2-3.3,3.1-5c0.4-0.6,0.3-0.9-0.5-0.8c-0.9,0-1.4,0.6-1.8,1.3c-1.4,1.8-2.4,3.9-3.7,5.8
		c-1.5,2.5-3,4.9-4.5,7.4c-0.7,1.1-1.7,1.5-2.7,2.2c-0.7,0.5-1.4,0.8-2,1.2c-0.4,0.2-0.7,0.3-1,0.1c-0.3-0.2-0.3-0.5-0.1-0.8
		c1.1-1.5,0.6-2.3-0.1-3.3c-0.5-0.8-0.9-1.5-1-2.4c-0.1-0.8,0.3-1.3,1.2-1.5c0.5-0.2,0.9-0.3,1.4-0.6c0.2-0.1,0.4-0.3,0.4-0.5
		c0-0.3-0.3-0.2-0.4-0.2c-2.5-0.3-4.9,2.3-4.9,4.3c-0.1,1.2-0.7,1.8-1.6,2.7c-1.6,1.4-3.5,2.5-5.3,3.6c-0.9,0.5-1.6,0.5-1.8,0
		c-0.2-0.5,0.1-1.1,1-1.7C359.8,405.4,359.9,405.4,359.9,405.4z"/>
	<path class="st0" d="M318.1,406c1.6-1.8,2.6-3.9,3.9-5.9c0.3-0.5,0.3-0.8-0.4-0.7c-0.8,0.1-1.5,0.1-2.2,0.2s-1.2,0-1.1-0.7
		s0.7-1.4,1.5-1.5c1-0.2,1.8-0.5,2.7-0.5c1,0,1.5-0.5,2-1.5c0.8-1.5,1.8-3,3.2-4.3c0.7-0.6,1.4-1.1,2.2-1.6
		c-2.7-0.6-5.1-1.4-8.1-0.8c-1.3,0.2-2.4,0.3-3.7,1.1c-1.4,1-1.8,1.8-1.2,2.8c0.3,0.5,0.9,0.8,1.3,1.2c0.5,0.4,0.3,1.7-0.5,2.2
		c-0.3,0.2-0.6,0.2-0.8,0.1c-0.8-0.5-1.5-0.9-2.1-1.5c-2.2-2.5-0.3-6.1,3.5-7.7c2.3-1.1,4.5-1.5,6.7-1.2c2,0.3,4.1,0.6,6,1.1
		c1.3,0.3,2.6-0.2,4-0.4c1.1-0.2,1.2,0,0.6,0.9c-0.4,0.6-0.9,1.1-1.5,1.5c-2.6,1.9-4.3,4.5-6,6.9c-0.4,0.5-0.3,0.8,0.3,0.8
		c0.9,0,1.7,0,2.6,0c0.5,0,0.8-0.2,1.1-0.6c1.7-2.3,3.8-4.5,6.2-6.3c0.1,0,0.2,0,0.3,0c0.1,0.5-0.3,0.8-0.7,1.1
		c-1.8,1.6-3.6,3.4-5,5.3c-0.6,0.8-1.4,1.2-2.2,1.2c-0.7,0-1.5,0.2-2.1,0.3c-1.5,0.2-1.9-0.5-1.1-1.7c1.6-2.5,3.5-5,6.1-7.1
		c0.2-0.1,0.4-0.3,0.6-0.4c0.2-0.2,0.5-0.5,0.4-0.7c-0.1-0.3-0.4,0-0.7,0c-1.6,0.2-3.3,0.1-4.8-0.2c-2.2-0.4-4.4-1.1-6.9-0.8
		c-2,0.3-4.2,0.8-6,2.5c-1.5,1.4-1.9,3.1-1.4,4.5c0.4,0.8,1.1,1.2,1.6,1.6c0.2,0.1,0.4,0.2,0.7,0c0.3-0.2,0.2-0.4,0.1-0.6
		c-0.2-0.3-0.4-0.4-0.6-0.6c-0.9-0.8-1.3-1.6-0.6-3c0.8-1.4,2-1.8,3.4-2.2c3.1-0.8,6-0.8,8.6,0c0.5,0.2,1.7-0.1,2.3,0.1
		c1,0.3,0.3,1.2-0.8,1.9c-2.3,1.5-3.8,3.5-4.9,5.6c-0.7,1.1-1.3,1.5-2.4,1.5c-0.8,0.1-1.5,0.4-2.3,0.4c-0.3,0-0.6,0.1-0.6,0.4
		c-0.1,0.3,0.3,0.3,0.5,0.3c0.5,0,1,0,1.5-0.1c1.1-0.2,1.4,0.2,1.2,1.2c-0.2,0.9-0.9,1.6-1.3,2.5c-0.7,1.2-1.5,2.3-2.3,3.5
		c-0.3,0.4-0.7,0.8-1.2,0.9c-0.1,0-0.2,0-0.3,0C317.7,406.3,317.9,406.1,318.1,406z"/>
	<path class="st0" d="M361.3,407.8c-0.5-0.1-0.9,0.2-1.2,0.5c-0.9,0.6-1.7,1-2.6,1.4c-0.8,0.3-1.5,0.5-1.9-0.1s-0.5-1.4,0.1-2.2
		c1.2-1.8,2.6-3.7,4.2-5.6c-0.7,0.2-1.1,0.6-1.5,0.9c-3.1,2.1-6,4.5-9.4,6.2c-0.6,0.3-1.2,0.6-1.8,0.9c-1.3,0.5-2,0-1.7-1.2
		c0.1-0.4,0.4-0.9,0.3-1.4c-1.2,0.8-2.3,1.6-3.6,2.1c-1.5,0.5-2.8,1.1-3.8,0.1c-0.6-0.6-0.6-1.5-0.4-2.5c-1.5,0.8-2.7,1.5-4.2,2.1
		c-1.2,0.5-2.3,0.8-3.5,1.1c-1.9,0.5-3.5-1.1-3-3.1c0.6-2.5,1.4-4.9,2.8-7.4c0.3-0.4,0.2-0.6-0.3-0.6c-1.1-0.1-2.1,0.1-3.2,0.4
		c-0.6,0.2-0.9,1-1.3,1.5c-1.5,2.3-2.9,4.6-5.1,6.6c-3.5,3.1-8.7,3.4-10.1,0.3c-0.5-1.2-0.3-2.1,0.7-3c0.8-0.7,2.8-1.1,3.6-0.8
		c0.3,0.1,0.4,0.4,0.3,0.8c-0.2,0.5-0.3,0.9-0.4,1.4c-0.4,1.4-0.2,1.7,1.2,1.8c0,0.1,0,0.2-0.1,0.3c-1.2,0.4-1.8,0-1.9-1
		c-0.1-0.7,0.1-1.4,0.2-2c0.1-0.5-0.2-0.7-0.7-0.6c-1.7,0.3-2.4,1.3-1.9,2.6c0.6,1.5,2,1.8,3.8,1.8c2.4,0,4.5-1.3,6.4-3.3
		c1.6-1.8,2.8-3.7,4.1-5.6c1-1.5,1.5-1.8,3-1.8c0.6,0,1.2,0,1.6,0c1.2,0,1.5,0.5,0.9,1.5c-0.7,1.2-1.2,2.3-1.6,3.6
		c-0.7,1.5-1.1,3-0.9,4.4c0.1,0.8,0.6,1.4,1.6,1.4c2.2,0.1,4.4-1.1,6.4-2.1c0.3-0.2,0.6-0.4,0.9-0.5c1.1-0.5,1.5-0.4,1.5,0.5
		c0.1,0.3,0.1,0.6,0.1,0.9c0.1,0.9,0.8,1.3,1.7,1.1c1.3-0.3,2.4-0.8,3.6-1.5c0.5-0.3,0.9-0.7,1.4-0.9c0.7-0.3,1.1-0.2,1.1,0.5
		c0,0.1-0.1,0.3-0.1,0.4c-0.4,1.7,0.1,1.9,1.8,1.1c1.8-1,3.7-1.9,5.2-3.2c1.8-1.4,3.9-2.6,5.7-4c0.1-0.1,0.3-0.2,0.4-0.3
		c0.4-0.2,0.8-0.4,1.1-0.2c0.3,0.2,0.2,0.7-0.1,1.1c-0.8,1.2-1.7,2.2-2.5,3.3c-0.7,1-1.5,1.8-1.6,2.9c-0.2,1,0.1,1.3,1.2,1
		c0.8-0.2,1.5-0.7,2.2-1.1c0.5-0.3,1-0.6,1.5-0.5C361.3,407.3,361.6,407.3,361.3,407.8z"/>
	<path class="st0" d="M401.4,399.9c-0.1,0.2-0.2,0.4-0.2,0.6c-0.2,0.3-0.4,0.5-0.4,0.8c1.2-0.8,2.1-1.7,3.3-2.5
		c1.1-0.7,2.1-1.3,3.2-1.5c1.1-0.3,1.8-0.5,2.3,0.3c0.6,0.8,0.1,1.6-0.5,2.6c-1.3,1.9-2.5,3.8-3.8,5.7c-0.1,0.2-0.4,0.3-0.2,0.5
		c0.2,0.1,0.4,0,0.5-0.1c1.2-0.9,2.5-1.5,3.3-2.9c1.9-3.4,6.1-6.4,10-6.1c1.4,0.1,2.5,0.5,2.6,1.8c0.1,1.4-0.7,2.6-2,3.7
		c-1.4,1.1-2.8,1.8-4.5,1.8c-0.9,0-1.5-0.3-1.8-0.8c-0.5-0.6-0.8-0.4-1.2,0.4c-0.5,1.1-0.9,2-1,3c-0.2,1.3,1.1,1.9,2.4,1.5
		c2.1-0.8,4.1-2.1,5.7-3.7c0.9-0.8,1.4-1.9,2.1-2.9c2.3-3,6-4.8,9.1-4.6c2.2,0.2,3.1,1.6,2,3.5c-1.6,2.9-6.3,5.2-8.2,2.6
		c-0.1-0.1-0.2-0.1-0.3-0.3c-1.4,1.6-1.9,3.3-1.4,4.8c0.1,0.1,0.1,0.3-0.1,0.4c-1.1,0-1-0.8-0.9-1.5c0.2-1,0.5-1.9,1-2.9
		c0.7-1.5,1.6-1.7,2.6-0.9c1.4,1.4,5,0.1,6.2-2.1c0.3-0.5,0.6-1,0.6-1.5c0-0.7-0.3-1.1-0.9-1.3c-2.3-0.7-5.1,0.2-7.4,2.2
		c-1.4,1.2-2.3,2.3-3.1,3.8c-0.4,0.7-1,1.2-1.6,1.6c-1.5,1-2.9,2-4.5,2.8c-2.5,1.3-4.3,0.6-4.3-1.6c0-1.3,0.5-2.5,1.5-3.8
		c0.7-0.8,1.2-1,1.7-0.5c0.2,0.1,0.3,0.3,0.5,0.4c1.8,1.7,5.6-0.8,6.6-3c0.4-0.9,0-1.6-0.9-1.9c-2-0.6-4.1-0.1-6.3,1.3
		c-1.9,1.3-3.2,2.9-4.4,4.6c-0.3,0.5-0.7,1-1.2,1.4c-0.8,0.5-1.5,1-2.2,1.5c-0.5,0.3-0.9,0.4-1.3,0.2c-0.4-0.2-0.3-0.6-0.2-1
		c0.3-0.8,0.9-1.5,1.4-2.2c1-1.4,1.9-2.7,2.6-4.2c0.9-1.5,0.4-2.1-1.4-1.6c-1.7,0.5-3.3,1.6-4.7,2.8c-0.7,0.5-1.2,1.1-1.7,1.5
		c-0.3,0.3-0.7,0.5-1,0.3s-0.3-0.5-0.2-0.8C400,401,400.8,400.1,401.4,399.9z"/>
	<path class="st0" d="M359.9,405.4c-0.1,0-0.1,0-0.2,0c-0.4-0.4,0-0.8,0.3-1.2c1.2-1.5,2.5-3.1,3.8-4.6c0.6-0.8,0.6-0.9-0.3-1
		c-0.5,0-1.1,0-1.5,0c-1.2-0.1-1.4-0.8-0.7-1.8c0.2-0.3,0.6-0.7,0.3-1c-0.3-0.3-0.7,0-1.1,0.2c-0.7,0.3-1.2,0.7-1.4,1.4
		c-0.2,0.6,0.2,1,0.6,1.3c1,0.6,1,1.3-0.3,2.2c-2.3,1.6-4.5,3.4-7,5c-0.5,0.3-1,0.6-1.5,0.8c-1.4,0.5-2,0-1.6-1.3s1.2-2.4,1.8-3.6
		c0.6-1.2,1.4-2.3,1.9-3.5c0.4-0.6,0.2-0.9-0.5-1.1c-1.8-0.3-3.9,0.1-5.9,1c-2.4,1.1-4.6,2.6-6.1,4.8c-1.4,2.1-3.3,3.2-5.3,4.2
		c-0.8,0.4-1.5,0.6-2.3,0.9c-1.4,0.4-2.5-0.1-2.7-1.3c-0.2-0.9-0.2-1.8,0.2-2.9c0.6-1.5,1-3.2,2-4.7c0.5-0.8,1.1-1.2,1.9-1.3
		c1.2,0,2.2-0.3,3.4-0.2c0.3,0,0.7,0,0.8-0.4c0.2-0.4-0.4-0.3-0.6-0.3c-0.9,0-1.7,0-2.5-0.1c-0.6-0.1-0.6-0.3-0.2-0.7
		c1.4,0.2,2.8,0,4.2,0.2c1,0.1,0.5,0.8,0.1,1.3c-0.6,0.7-1.4,0.9-2.1,0.9c-1,0-1.9,0.1-2.9,0.1c-0.6,0-1.1,0.2-1.4,0.8
		c-0.9,1.8-1.9,3.8-2,5.7c-0.2,2.1,0.9,2.7,3.2,1.8c1.5-0.6,2.8-1.4,4.3-2.2c0.4-0.2,0.7-0.5,0.9-0.8c2.3-3.6,5.6-6,9.6-7.2
		c1.9-0.6,3.9-0.8,5.4-0.1c0.6,0.3,0.3,0.8,0,1.2c-1.4,2.3-2.6,4.6-3.8,7c-0.2,0.4-0.6,0.9-0.2,1.2c0.4,0.3,0.8-0.1,1.2-0.3
		c2.8-1.5,5.2-3.7,7.8-5.5c0.7-0.5,0.5-0.8,0.1-1c-1.2-0.8-1.3-1.2-0.7-2.2c0.7-1.1,2-1.9,3.2-2c1.3,0,1.5,0.7,0.7,1.7
		c-0.9,1.1-0.8,1.4,0.5,1.5c0.7,0,1.4,0,2-0.1c0.9-0.1,1,0.3,0.4,1.1C363.4,401.1,361.7,403.2,359.9,405.4z"/>
	<path class="st0" d="M404.7,401.6c0.1-0.2,0.2-0.3,0.3-0.5c0.3-0.3,0.5-0.7,0.2-1s-0.7-0.1-1.2,0.1c-1.2,0.7-2,1.5-2.9,2.6
		c-1.7,1.9-3.3,4.1-4.7,6.2c-0.4,0.5-0.8,0.8-1.3,0.8c-0.3,0-0.7,0-1,0c-1.5,0-1.6-0.3-0.8-1.8c0.2-0.3,0.5-0.5,0.4-1
		c-1.1,0.6-2,1.3-3,1.8c-0.8,0.5-1.6,0.8-2.5,1.1c-1.2,0.4-1.9-0.4-1.6-1.6c0.1-0.5,0.4-1,0.6-1.5c-0.7,0.2-1.1,0.6-1.5,0.9
		c-1.2,0.8-2.2,1.6-3.6,2.1s-2,0-1.5-1.3c0.5-1,0.9-1.9,1.7-2.8c0.2,0.1,0.2,0.3,0.2,0.5c0,0.6-0.6,1.2-0.9,1.7
		c-0.2,0.3-0.4,0.8-0.1,1s0.7,0,1.1-0.2c1.1-0.5,2-1.2,3-1.9c0.4-0.3,0.8-0.6,1.3-0.8c0.4-0.3,0.8-0.4,1.1-0.2
		c0.4,0.2,0.3,0.6,0.2,1c-0.2,0.5-0.5,1-0.6,1.5c-0.1,0.8,0.3,1.1,1.2,0.8c1.2-0.3,2.1-0.9,3.1-1.5c0.5-0.3,1-0.8,1.5-1
		c0.9-0.4,1.3-0.1,1.1,0.7c-0.1,0.2-0.2,0.5-0.2,0.7c-0.1,0.5-0.6,1.1,0.2,1.1c0.7,0,1.2,0,1.6-0.8c1.4-2.1,2.9-4.2,4.7-6
		c1-1,1.9-1.8,3.1-2.5c0.9-0.5,1.7-0.4,2,0.1s0,1.5-0.7,2c-0.3,0.3-0.7,0.9-1,0.7C404.4,402.4,404.5,401.8,404.7,401.6z"/>
	<path class="st0" d="M382.2,406.5c0.1-0.2,0.1-0.5,0.2-0.7c0.5-0.9,1-1.8,1.5-2.7c0.5-0.7,0.8-1.4,1.1-2.1c0.2-0.4,0.5-0.9,0.1-1.1
		s-0.9-0.1-1.5,0.2c-1.9,1.1-3.4,2.4-4.6,4.1c-1,1.4-1.8,2.6-2.7,4c-1,1.4-2.2,1.8-3.5,1.5c-0.4-0.1-0.3-0.5-0.2-0.8
		c0.2-0.7,0.8-1.3,1.1-1.9c0.1-0.3,0.4-0.6,0.2-0.8c-0.3-0.1-0.5,0.2-0.8,0.3c-1.7,1.1-3.6,2.1-5.4,2.9c-2.3,0.9-4.3,0.8-5.8-0.3
		c-0.4-0.3-0.7-0.7-0.6-1.3c0-0.3-0.3-0.2-0.5-0.3c0.5-0.8,1-0.6,1.1-0.2c0.3,1.2,1.3,1.5,2.5,1.7c1.4,0.1,2.7-0.2,4.2-0.9
		c1.6-0.8,3.1-1.6,4.6-2.6c0.6-0.3,1.1-0.7,1.5-0.4c0.5,0.3,0.2,0.9-0.2,1.5c-0.3,0.4-0.6,0.9-0.7,1.4c-0.1,0.3-0.6,0.7-0.2,0.8
		c0.4,0.1,0.9,0.1,1.4-0.3c0.7-0.7,1.3-1.4,1.6-2.1c1.3-2.4,3.2-4.5,5.5-6.2c0.6-0.5,1.2-0.8,1.8-0.9c1.5-0.3,2.2,0.4,1.6,1.7
		c-0.7,1.6-1.6,3.4-2.7,4.9C382.9,406.1,382.6,406.5,382.2,406.5z"/>
	<path class="st0" d="M339.1,396.4c-1.5,0-2.9,0-4.4,0c-0.8-0.3-0.2-0.8,0.2-1.2c1.5-1.8,3.1-3.5,5-5c1.2-0.9,2.4-1.5,3.8-1.9
		c1.9-0.6,2.9-0.2,3.4,1.4c0.3,0.9,0.5,0.9,1.4,0.2c1.5-1.1,1.5-1.8,0.4-2.4c-1.7-1-3.8-0.9-6,0.2c-0.9,0.4-1.7,1-2.6,1.5
		c-0.4,0.3-0.8,0.6-1.3,0.4c-0.1,0-0.2,0-0.3,0c2.2-1.9,6.6-4.5,9.9-3.2c0.1,0,0.3,0.1,0.4,0.1c0.8,0.6,1.8,0.9,1.5,2.1
		c-0.4,1.4-1.6,1.9-2.8,2.6c-0.7,0.4-1.1,0.3-1.2-0.3c0-0.1-0.1-0.2-0.1-0.3c0.1-1.9-1.5-2.1-3.6-1.3c-1.5,0.6-2.6,1.5-3.8,2.6
		c-1.2,1.1-2.2,2.1-3.1,3.3c-0.8,0.9-0.7,1.1,0.3,1.1C337.1,396.3,338.2,396.1,339.1,396.4z"/>
	<path class="st0" d="M423,408.3c0.1-0.1,0.1-0.2,0.1-0.3c1.5,1.3,3.2,0.1,4.9-1c1.5-1,2.9-2,4.4-3c0.3-0.2,0.6-0.6,1-0.4
		c0.3,0.2,0.1,0.6,0,0.9c-0.1,0.5-0.4,0.9-0.8,1.3c-2,1.5-4.2,3-6.4,4.2c-2.5,1.3-4.7,1.4-6.4-0.1c-0.5-0.3-0.9-0.8-0.7-1.5
		c0.1-0.1,0.2-0.1,0.3-0.1c0.3,0,0.4,0.1,0.5,0.3c0.8,1.8,4.3,1.7,6.4,0.6s4-2.6,5.9-4.1c-1.2,0.5-2.2,1.4-3.2,2.1
		c-1.2,0.8-2.3,1.4-3.6,1.8c-0.8,0.3-1.5,0.4-2,0C423,409,422.6,408.8,423,408.3z"/>
	<path class="st0" d="M397.7,393.4c-0.6,0-0.9-0.3-0.7-1.1c0.3-1.1,1.7-2.1,2.7-2.1c0.9,0,1.3,0.5,1.1,1.2
		C400.5,392.3,399,393.4,397.7,393.4z"/>
	<path class="st0" d="M404.7,401.6c-0.1,0.2-0.1,0.4-0.2,0.6c0.3,0.3,0,0.7-0.2,1.1c-0.9,1.4-1.9,2.6-2.7,4c-0.3,0.5-0.5,1-0.7,1.4
		c-0.2,0.8,0,1.1,1,0.7c1.5-0.5,2.8-1.6,4.3-2.4c0.4-0.2,0.8-0.5,1.2-0.6c0.4-0.1,0.9-0.1,0.9,0.3c0,1,0.4,1.8,0.4,2.8
		c-0.1,0.1-0.2,0.2-0.3,0.3c-0.7-0.3-0.9-1-0.8-1.7c0.1-1-0.1-1-1.1-0.4c-1.5,0.9-2.9,1.8-4.5,2.6c-1.5,0.7-2.2,0.3-1.8-1.2
		c0.6-1.7,1.6-3.3,2.8-4.8C403.6,403.2,404.1,402.4,404.7,401.6z"/>
	<path class="st0" d="M408.3,409.6c0.1-0.1,0.1-0.2,0.1-0.3c0.3-0.3,0.6-0.3,0.9-0.2c2.6,1,5.1-0.2,7.8-2.2c0.3-0.2,0.7-0.3,1-0.4
		c0.7-0.4,1.3-0.7,1.6-0.1c0.4,0.5,0.4,1.1-0.5,1.6c-0.1,0-0.2,0.5-0.3,0.5c-0.2-0.4-0.1-1.3,0-1.8c-1.9,1.2-3.8,2.7-5.8,3.2
		c-1,0.3-1.9,0.6-2.8,0.3C409.6,410.4,408.8,410.1,408.3,409.6z"/>
	<path class="st0" d="M315.3,407.9c0,0,0.1-0.1,0.1-0.2c0.3-0.1,0.6-0.3,0.9-0.4c0.5-0.2,0.9-0.7,1.4-0.8c0,0,0.1,0,0.1,0.1
		C317.5,407.8,316.3,408.4,315.3,407.9z"/>
	<path class="st0" d="M410.2,410.4c1,0,1.9-0.2,2.9-0.3C412.1,410.7,411.1,410.7,410.2,410.4z"/>
	<path class="st0" d="M317.7,406.5c-0.5,0.3-0.9,0.8-1.4,0.8c0.8-0.2,1.7-0.3,1.8-1.4C318,406.1,317.8,406.3,317.7,406.5z"/>
	<path class="st0" d="M315,407.7c0.9-0.1,1.8-0.8,2.6-1.2c1.5-1.3,2.5-2.7,3.5-4.3c0.5-0.8,0.9-1.5,1.2-2.5c-0.2-0.5,0-0.8-0.6-0.8
		c-0.7,0.3-1.4,0.2-2,0.2c-0.4,0-1,0.2-0.8-0.5c0.2-0.5,0.7-1,1.2-1c1,0,1.9-0.5,2.8-0.5s1.4-0.4,1.7-1.2c1.3-2.3,2.7-4.5,5.4-6
		c0.8-0.4,0.5-0.9,0-1c-3-0.5-5.8-1.4-9.3-0.4c-0.9,0.3-1.7,0.4-2.6,0.9c-1.6,0.9-2,2.5-1.2,3.4c0.4,0.4,0.7,0.7,1.2,1
		c0.3,0.2,0.3,0.4,0.2,0.8c-0.3,1-0.7,1.3-1.4,0.8c-1.1-0.6-2.4-1.2-2.7-2.5c-0.5-1.9,1.5-4.5,3.8-5.6c3.3-1.6,6.2-1.5,9.1-1.1
		c1.7,0.3,3.4,0.8,5.3,0.8c0.8,0,1.5,0,2.2-0.3c0.3-0.1,0.9-0.7,1.1-0.4c0.2,0.3-0.3,1.1-0.6,1.4c-1,1.2-2.3,1.8-3.3,3
		c-1.5,1.6-2.8,3.4-4,5.1c-0.5,0.8-0.3,1.1,0.5,1c1,0,1.6,0,2.1,0c0.6,0,1,0,1.4-0.3c0.3-0.2,0.5-0.6,0.5-0.7
		c0.3-0.6,1.6-2.2,5.7-6.4c1.3-1.1,3.4-2.4,6.2-2.9c2.4-0.4,4.6,0,5.4,0.9c0.7,0.8,0.6,1.3-0.5,2.1c-0.3,0.2-0.6,0.4-0.8,0.6
		c-1.5,1.1-1.5,1.1-1.7-0.3c-0.4-1.6-1.7-2-4.1-0.9c-1.3,0.7-4.5,1.9-6.5,5.4c-0.4,0.8-0.7,1.4-0.9,1.8c1.6,0.5,2.5,0.5,3.1,0.4
		c0.2,0,0.7-0.2,0.9,0.1c0.1,0.1,0.1,0.2,0,0.4c-0.2,0.6-0.8,1.1-1.5,1.1c-1.1,0.1-2.2,0.1-3.2,0.1s-1.5,0.3-2,1.3
		c-0.9,1.5-1.4,3.1-1.9,4.7c-0.4,1-0.3,1.8,0.1,2.6c0.4,1.1,1.6,1.2,3.6,0.3c1.3-0.5,2.3-1.2,3.6-1.8c1.4-0.8,1.9-1.9,2.8-3
		c2-2.5,4.6-4.2,7.6-5.2c1.8-0.6,3.5-0.6,5.1-0.4c0.7,0.1,0.8,0.4,0.4,1c-1.2,2.1-2.3,4.2-3.5,6.3c-0.2,0.4-0.4,0.8-0.6,1.3
		s-0.4,0.8,0.1,1.1c0.4,0.3,0.9,0,1.3-0.2c1-0.5,1.8-1.1,2.6-1.6c1.9-1.4,3.9-2.8,5.7-4.2c0.9-0.7,0.9-1,0.2-1.3
		c-1.1-0.5-1.4-1.1-0.8-2c0.5-0.9,2.1-1.8,3.1-1.7c0.5,0,0.6,0.3,0.4,0.7c-0.2,0.3-0.4,0.7-0.6,1.1c-0.8,0.9-0.7,1.4,0.4,1.4
		c0.8,0,1.6,0,2.4,0c0.6,0,1,0,0.4,0.8c-1.5,1.8-3,3.7-4.5,5.5c-0.3,0.3-0.5,0.6-0.5,0.9c-0.3,0.5-1.2,1.1-0.8,1.5
		c0.8-0.1,1.3-0.3,1.7-0.4c2.3-0.8,3-2.1,5.1-3.8c0.2-0.1,0.6-0.5,0.8-1c0.2-0.4,0.2-0.7,0.2-0.7c0.1-1.1,1.5-3.7,4-4.7
		c0,0,0.8-0.3,2.5-0.3c0.6,0,0.5,0.4,0.2,0.8c-0.6,0.8-1.5,1.1-2.2,1.4c-0.7,0.2-0.9,0.4-0.8,1c0.2,1.1,0.7,1.9,1.2,2.7
		c0.7,1,1.2,1.9-0.2,3.4c-0.2,0.2-0.3,0.5-0.1,0.6c0.1,0,0.2,0,0.2,0c0.2-0.1,0.3-0.2,0.4-0.2c0.3-0.3,2.1-1.2,3.4-2.3
		c1.1-0.9,1.7-1.9,2.4-3.1c3.8-6.5,4.1-9.7,7.2-11.8c1.2-0.8,3-1.5,3.3-1.2c0.1,0.1,0.1,0.5,0.1,0.6c0,0.3-0.2,0.6-0.2,0.6
		c-0.8,1.3-1.5,2.5-2.3,3.8c-1.7,2.8-3.6,5.6-5.3,8.5c-0.1,0.1-0.3,0-0.4,0.1c0.8-0.3,1.3-0.9,1.8-1.4c0.1-0.1,0.6-0.4,0.9-0.6
		c1.2-0.9,2.7-1.6,4.6-1.8c0.6-0.1,1.3-0.1,1.6,0.3c0.2,0.3,0.1,0.8-0.3,1.7c-0.7,1.5-1.8,2.8-2.6,4.2c-0.5,0.8-1.2,1.5-1.5,2.4
		c-0.1,0.3-0.2,0.5,0,0.7c0.3,0.2,0.4-0.4,0.7-0.6c1.2-0.8,2.4-1.4,3.5-2.4c1.1-0.9,1.2-2.1,1.9-3.1c0.4-0.6,1.2-1.5,1.6-2.1
		c0.8-1,1.9-0.8,2.9-0.7c0.5,0.1,0.4,0.4,0.2,0.7c-1.1,1.6-2.2,3.4-3.2,5c-0.7,1.1-1.5,2.1-1.7,3.3c-0.1,0.3-0.3,0.8,0.1,0.9
		c0.3,0.2,0.7,0,1.1-0.2c1.3-0.9,2.3-2.2,3.5-3.1c1-0.8,1.2-1.6,1.8-2.5c0.7-1.1,1.5-2.2,2.1-3.2c0.7-1,2.3-1.1,3.2-0.8
		c0.4,0.1,0.3,0.4,0.1,0.7c-0.4,0.5-0.7,1.1-1,1.5c-0.7,0.8-2.1,1.6-1.6,2.6c-0.2-0.5,1.2-1.5,1.9-2c1.5-1.3,3.2-2.1,5.1-2.7
		c0.2-0.1,0.4-0.2,0.6-0.2c2.1-0.5,2.7,0.2,1.7,2.1s-2.4,3.7-3.6,5.5c-0.1,0.1-0.2,0.3-0.3,0.3c-0.2,0.4-0.6,0.9-0.3,1.2
		c0.4,0.3,0-0.2,0.5-0.4c0.1,0,0.7-0.4,0.8-0.4c1.5-0.8,2.3-2.1,3.3-3.5c1.5-2.3,4.1-3.7,6.7-4.6c1.5-0.5,3.1-0.5,4.4,0
		c1.2,0.4,1.2,2,0.1,3.4c-1.3,1.5-4.5,3.6-6.4,2.5c-0.4-0.3-0.7,0-1-0.3s-0.5-0.8-0.8-0.4c-1,1.4-1.5,2.8-1.5,4.2
		c0.2,1.4,1.4,1.9,2.9,1.4c2.1-0.9,3.7-2.4,5.5-3.9c1-0.8,1.2-1.8,1.9-2.7c2.4-3,6.3-5.1,10.1-4.3c1.1,0.2,1.5,0.8,1.3,1.8
		c-0.3,1.5-1.3,2.7-2.8,3.6s-2.9,1.4-4.3,0.7c-0.3-0.1-0.7-0.3-0.9-0.5c-0.7-0.8-0.5-0.8-1.2,0.3c-1.1,1.4-1.5,4-0.8,4.7
		c0.9,0.8,1.7,0.8,3.6-0.1c1.9-1,3.7-2.4,5.5-3.7c0.3-0.2,0.6-0.4,1.1-0.7c-0.1,0.6-0.1,1.1-0.7,1.5c-2.3,1.7-4.5,3.6-7.3,4.5
		c-2.3,0.9-6.4,0.8-6.6-1.4c0.1-0.1,0.4-1.1,0.6-0.9c0.4,0.3,0.6-0.8,0-1c-0.5-0.2-1,0.4-1.4,0.7c-1.7,1.2-3.6,2.3-5.6,2.6
		c-1.5,0.2-2.7,0-3.9-0.6c-0.5-0.6-0.8-1.4-0.6-2.2c0.2-0.8-0.2-0.8-0.9-0.3c-1.5,1-2.8,1.9-4.4,2.7c-0.4,0.2-0.8,0.4-1.2,0.5
		c-0.9,0.2-1.3-0.2-1.1-1c0.5-1.5,1.6-3.1,2.6-4.5c0.5-0.8,1.2-1.5,1.5-2.2c0.9-0.8,1.4-1.8,1-2.2c-0.4-0.4-1.3-0.2-2.3,0.6
		c-2.1,1.5-3.7,3.7-5.2,5.7c-0.7,0.9-1.3,1.8-1.8,2.7c-0.3,0.4-0.6,0.5-0.9,0.5c-0.4,0-0.8,0-1.2,0c-0.8,0-0.9-0.3-0.5-1
		c0.3-0.6,0.9-1.5,0.5-1.6c-0.5-0.3-1.2,0.5-1.7,0.9c-1,0.6-1.9,1.3-3,1.7c-0.8,0.3-1.6,0.6-2.1,0.2s-0.2-1.1,0.1-1.7
		c0-0.1,0.1-0.2,0.1-0.3c0.2-0.5,0.9-1.2,0.4-1.4c-0.4-0.2-1,0.5-1.5,0.8c-1.2,0.8-2.2,1.6-3.5,2.3c-0.7,0.3-1.3,0.6-1.7,0.3
		c-0.5-0.3-0.3-1-0.1-1.4c0.3-0.6,0.8-2.1,1.1-2.6c1.2-1.7,1.9-2.4,2.8-4.1c0.7-1.4,0.7-2-0.9-1.7c-0.6,0.1-1.1,0.4-1.5,0.8
		c-2.2,1.6-4,3.6-5.2,5.8c-0.4,0.7-0.9,1.4-1.4,2c-0.7,0.9-1.9,1.3-2.7,0.9c-0.1,0-0.2-0.1-0.2-0.2c-0.1-0.2,0.1-0.4,0.1-0.4
		c0.2-0.3,0.6-1.1,1.1-2.4c0.2-0.2,0.5-0.6,0.4-0.7s-0.4,0-0.8,0.2c-1.9,0.8-4.1,2.6-6.3,3.4c-1.9,0.7-3.7,0.6-5.1-0.3
		c-0.2-0.1-0.4-0.4-0.4-0.4c-0.2-0.3-0.3-0.6-0.4-0.8c0-0.1,0.1-0.4,0-0.4c-0.1-0.1-0.3,0.1-0.6,0.4c-1.3,0.6-2.3,1.5-3.7,1.8
		c-1.3,0.3-1.7-0.1-1.5-1.4c0.4-1.5,1.6-2.8,2.5-4.2c0.6-0.8,1.3-1.5,1.8-2.4c0.2-0.2,0.4-0.5,0.2-0.6c-0.3-0.3-0.5,0.1-0.7,0.3
		c-2.7,1.8-5.4,3.8-8.1,5.6c-1.3,0.9-2.5,1.5-3.9,2.1c-1.6,0.8-2.3,0.4-1.9-1.2c0.1-0.2,0.2-0.4,0.2-0.6c0.1-0.3,0.3-0.5,0.1-0.7
		c-0.3-0.2-0.6,0.2-0.9,0.4c-1.5,1.1-2.9,2-4.7,2.3c-1.5,0.3-2.2-0.2-2.2-1.5c-0.1-1.6,0.4-1.7-1.7-0.5c-1.8,1.1-3.8,2-5.7,2.3
		c-2.9,0.4-3.5-0.9-3-3.3c0.4-1.9,1.1-4,2.2-5.9c0.2-0.3,0.3-0.6,0.5-1c0.3-0.6,0.2-0.8-0.5-0.8c-0.8,0-1.5,0.1-2.1,0
		c-1.1-0.1-1.7,0.5-2.2,1.4c-0.9,1.5-1.8,3-2.9,4.5c-1.5,1.9-3.2,3.8-5.7,4.5c-2.4,0.8-5.8,0.5-6.4-1.8c-0.2-0.8-0.2-1.5,0.6-2.3
		c0.5-0.5,2.4-1,3-0.9c0.4,0.1,0.3,0.4,0.2,0.7c-0.2,0.6-0.4,1.3-0.4,1.8C313.8,407.7,313.7,407.9,315,407.7z"/>
	<path d="M342,404.6c1-2.9,4.8-6.3,7.9-7.1c0.9-0.2,1.2,0,0.7,0.8c-1.2,2.1-2.3,4.2-3.6,6.2c-0.5,0.9-3.3,2.3-4.3,2.3
		c-0.6,0-0.9-0.3-1-0.8C341.7,405.6,341.8,405.2,342,404.6z"/>
	<path d="M365.3,408.6c-0.2,0-0.6,0-0.9-0.1c-1.4-0.7-1.9-1.7,0.3-3.4c0.1,0,0.1-0.1,0.2-0.1c0.9-0.4,1.5-1.6,2.4-1.3
		c1,0.5,1.4,3.1,0.7,4C367.3,408.6,366.4,408.6,365.3,408.6z"/>
	<path d="M430.7,400.3c-0.4,1.1-1.5,2.2-2.5,2.6c-0.9,0.3-2-0.2-2.4-0.9c-0.2-0.3-0.2-0.7,0.2-1.1c1-1.1,2-1.9,3.5-2.1
		C430.6,398.5,431,399.2,430.7,400.3z"/>
	<path class="st0" d="M415.9,403c-0.8,0.1-1.3-0.3-1.6-0.8c-0.6-0.5-0.5-1.2,0.4-1.8c1.2-1.1,2.3-1.9,3.8-1.9c1,0,1.4,0.4,1.2,1.4
		C419.2,401.4,417.6,403,415.9,403z"/>
	<path d="M419,400.1c-0.4,1.1-1.5,2.1-2.4,2.5c-0.8,0.3-1.8-0.3-2.2-1c-0.1-0.2-0.2-0.4,0-0.7c0.7-1.1,2.5-2.1,3.7-2.2
		C419.2,398.7,419.4,399.1,419,400.1z"/>
</g>
<g>
	<path class="st1" d="M293.9,414.7c-1.7,4.2-3.6,8.2-5.1,12.5c-0.7,1.9-1.6,1.9-3,1.5c-11.6-3.4-23.3-3.4-35,0
		c-2,0.6-2.8-0.4-3.4-2.3c-1.5-4.5-3.5-8.7-5.6-12.8c-1-1.7-1.6-3.6-4-3.7c-1.5-0.1-2-1.6-1.8-3.4c0.2-1.6,1.3-2.4,2.4-2.5
		c1.4,0,2.5,0.8,2.7,2.6c0.1,1.3-0.4,2.7,0.7,3.7c1.9,1.8,3.6,4.9,6.6,3.5c2.9-1.4,2.4-4.5,2.1-7.4c-0.3-3-0.2-6.1-3.3-7.7
		c-1.4-0.7-1.3-2.8-0.4-4.4c0.9-1.4,2-1.8,3.4-1.2c1.5,0.7,2.1,2,1.9,4c-0.5,4.2,1.9,9.9,4.9,11.8s6.5,0.8,7.8-2.9
		c1.5-3.9,1.8-8,2.5-12.1c0.2-1.5-0.6-2-1.4-2.9c-1.5-1.7-1.6-3.8-0.1-5.6c1.4-1.6,3.2-1.5,4.5,0c1.5,1.7,1.6,4,0,5.4
		c-1.5,1.5-1.5,2.8-1.1,4.7c0.7,3.3,1.2,6.8,2,10c1,3.5,4.1,5.1,6.8,4.1c3.4-1.3,6.8-7.8,6.2-12c-0.3-1.9-0.2-3.6,1.7-4.4
		c1.5-0.7,2.9-0.2,3.7,1.5c0.9,2,0.3,3.7-1.4,4.9c-2.4,1.8-3.7,10.3-1.9,12.9c2,3.2,4.3,1.6,6.5,0.1
		C294.4,412.6,294.2,413.5,293.9,414.7z"/>
	<path class="st1" d="M285.5,435.8c-2.8-0.9-6-1.5-9.2-2c-8.3-1.2-16.5-0.6-24.6,1.8c-1.3,0.4-3,1.4-3.7-0.9
		c-0.7-2.5,1.4-2.8,2.8-3.3c11.6-3.4,23.3-3.4,34.9,0.1c1.4,0.4,3,0.7,2.7,3C288.1,436.1,287,436.1,285.5,435.8z"/>
	<path class="st1" d="M293.9,414.7c-0.3-0.7-0.6-1.4-1-2c1.3-1.8,2.8-3.3,2.4-6.1c-0.2-1.4,1.1-2.3,2.4-2.4c1.5-0.1,2.4,1,2.7,2.6
		c0.3,1.5-0.4,3.2-1.5,3.2C296,409.9,295.5,413,293.9,414.7z"/>
</g>
<g>
	<path class="st0" d="M479.6,161.8c0.4-0.8,0.9-1.6,1.3-2.3c0.9-1.3,1.4-2.7,2.2-4.1c0.5-1,0.5-1.9,0.1-2.6
		c-0.5-0.9-1.4-0.9-2.4-0.3c-1.3,0.8-2.4,1.4-3.6,2.6c-5.7,5.5-9.8,12.2-14,18.9c-1.8,2.6-3.2,5.4-4.6,8.1c-0.8,1.4-1.6,2.1-2.7,2.2
		c-0.5,0-1.3,0-1.9,0c-5.4,0-5.3,0-2.7-6.4c0.3-0.5,0.5-1.2,0.9-1.8c0.9-1.8,0.1-2.2-1.2-1.4c-1.6,1-3.1,1-4.4,0.8
		c-2.1-0.4-3.6,0.4-5.5,2.2c-4.8,4.2-10.2,7-15.4,7.7c-5.1,0.8-9.3-1.8-9.8-9.5c-0.1-3.7-0.3-3.6-3.5-1c-4.4,3.5-8.5,7.3-13.4,9.1
		c-4.1,1.4-6.2-0.3-5.3-4.8c0.1-0.9,0.5-1.9,0.8-2.7c0.1-0.8,0.4-1.6,0-1.9c-0.8-0.4-1.4,0.3-2.1,0.9c-2.1,1.9-4.2,3.5-6.4,5.3
		c-1.8,1.4-3.6,2.6-5.7,3.6c-2.2,1-3.5,0.1-3.3-2.3c0.1-2.1,1-4.2,2.1-6.2c2.1-4.1,4.2-8.1,6.3-12.1c1.6-3.1,2.6-6.2,3.6-9.1
		c1.2-3.3-0.3-4.8-3.3-3.2c-2.3,1.2-4.6,2.4-6.4,4.9c-5.7,5.3-9.1,11.8-12.6,18.4c-0.4,0.8-0.8,1.6-1.3,2.3
		c-3.3,5.7-4.1,6.3-9.1,5.9c-2.2-0.1-2.3-0.5-1-3.2c0.9-1.9,2.2-3.6,2.7-5.7c0.3-0.9,1.2-1.9,0.5-2.6c-0.8-0.8-1.4,0.5-2.2,1
		c-4.9,3.5-9.8,7-15,9.5c-6.2,2.9-11.3,2.7-15.6-0.8c-0.9-0.8-1.3-1.8-1.6-2.9c-0.4-1.8-1.3-1.8-2.7-0.5c-2.6,2.2-5.5,3.3-8.2,5.1
		c-1.9,1.2-3.5,1.3-4.1-0.9c0.1-3.5,2.2-7.3,1.4-10.7c0-0.4,0.1-0.9,0.4-1.2c4.5-4.8,5.4-11.2,9.1-16.6c1.2-1.6,1.2-3.7,2.6-5.7
		c0.8-0.9,0.4-2.1,0-2.7c-0.5-0.9-1.3-1-2.3-0.4c-6.3,3.2-11.9,7.4-16.3,14.3c-2.3,3.7-4.6,7.4-4.6,11.7c-0.1,4,1.9,5.1,5.5,3.2
		c1-0.5,2.1-1.3,3.1-1.8c0.9-0.4,1.9-1,2.2-0.1c0.4,0.9-0.4,1.8-1.2,2.3c-0.9,1-1.8,2.1-2.9,2.3c-0.3,0.1-0.5,0.4-0.8,0.5
		c-1.9,1-3.5,2.6-5.5,3.6c-2.2,1.2-4.4,2.1-6.6,1.9c-3.3-0.1-4.9-2.4-4.5-6.3c1-10.4,6.6-18.9,14.7-26.3c3.6-3.3,7.7-5.4,11.7-7.7
		c2.6-1,5.4-1.9,8-2.4c3.3-0.8,5.9,0.1,8.7,1c1.2,0.4,1.3,1.3,0.8,2.7c-1.8,4.1-3.7,8-5.4,12.1c-1.9,4.5-4.5,8.7-5.8,13.2
		c-0.9,3.2-0.3,3.6,2.6,2.1c3.5-1.9,6.6-4.9,9.8-7.6c0.8-0.5,1.3-1.3,1.9-1.9c2.4-1.9,3.7-3.6,4.1-7c0.4-6.4,3.6-12.1,9.3-15.2
		c2.6-1.4,5.4-2.2,7.8-1.9c2.3,0.3,2.4,2.6,0.5,4.9c-1.4,1.8-3.2,2.9-4.9,3.2c-2.3,0.4-2.3,1.8-2.2,3.2c0.3,2.6,1.2,4.8,2.3,6.8
		c0.9,1.4,1.8,2.9,2.2,4.6c0.4,2.1,0.9,4-1,6.3c-0.4,0.5-0.8,1.3-0.4,1.8c0.3,0.5,1,0,1.4-0.4c2.9-1.9,5.8-4.1,8.6-6.3
		c2.9-2.3,3.6-5.9,5.4-9.1c4.5-8.6,8.9-17.2,13.2-25.8c2.1-4,4.1-7.8,6.4-11.8c2.3-4,5.4-6.2,8.9-5.8c2.2,0.1,2.4,1.4,1.2,4
		c-4.2,8.1-8.5,16.4-12.6,24.6c-1.9,3.6-3.7,7.3-5.7,10.9c-0.3,0.8-0.9,1.4-0.3,1.9c0.5,0.4,1.2-0.3,1.8-0.9
		c4.1-3.7,8.2-7.1,13.2-8.6c0.8-0.3,1.3-0.1,1.9-0.3c4.9-1,5.7,3.3,3.5,7.7c-2.6,5.1-5.5,10.2-8.5,15.3c-1.2,2.1-1.8,4.1-2.6,6.2
		c-0.3,0.5-0.3,1.3,0.1,1.6c0.5,0.3,1-0.1,1.6-0.5c6.6-4.8,12.1-10.3,15-18.5c0.5-1.8,1.9-3.3,2.7-4.9c2.3-3.7,5.4-4.5,8.5-4.8
		c1.3-0.1,1.6,0.9,1,2.3c-1,2.7-2.6,5.1-4.1,7.7c-2.9,5.5-5.7,11.1-8.5,16.6c-0.8,1.4-1,3.1-1.4,4.6c-0.4,2.1,0.8,2.3,2.1,1.2
		c3.5-2.7,7-5.5,10.3-8.6c0.8-0.8,1.3-1.8,1.8-2.7c4.4-12.1,14-18.9,23.5-21.1c2.4-0.5,4.9-1,7.4-1c1.2,0,2.4,0,2.2,1.4
		c-0.3,1.6-1.6,1.8-2.7,1.8c-11.8-0.1-21.6,12.6-21.1,25.3c0.3,5.8,5.7,8,10.9,4.5c1.6-1,2.7-2.2,1.4-4c-2.1-2.6-2.3-6.3-1.9-10.2
		c0.5-5.5,4.2-9.9,8.6-10.9c5.1-1.3,8.6,1.3,8,5.9c-0.5,4.4-2.6,8.6-5.5,12.5c-0.5,0.9-2.1,1.6-1.2,2.6c0.8,0.8,1.9,0.4,2.7-0.3
		c2.9-2.1,5.8-4.2,7.4-7.8c1.8-4.2,4.1-8.2,6.4-12.3c2.1-4,4.6-6.4,8.6-6.4c2.6,0,3.1,0.8,1.4,3.6c-1.4,2.4-2.7,5.1-4,7.7
		c-0.3,0.5-0.9,1.3-0.3,1.8c0.5,0.5,1.2-0.3,1.8-0.9c3.1-3.3,6.4-6.4,10-9c2.6-1.9,5.3-3.2,7.8-4.1c1.9-0.5,4-0.8,4.8,0.9
		c1,1.6,0.5,4.1-0.5,6.4c-3.2,6.6-7,13-10.4,19.4c-0.8,1.4-1.3,2.7-1.4,4.2c1.4,0.1,2.6-1,3.7-2.1c2.6-2.2,5.4-4.1,7.8-6.4
		c0.4-0.4,1-1,1.6-0.8c0.8,0.3,0.3,1.2,0.1,1.9c-0.3,1.4-1,2.6-2.2,3.6c-5.9,4.8-11.8,9.9-18,13.9c-1,0.5-2.1,1.2-3.1,1.4
		c-2.3,0.8-3.3-0.8-2.7-3.2c1.2-5.7,4.5-10.7,7.4-15.8C478.2,164.8,478.8,163.4,479.6,161.8z"/>
	<path class="st0" d="M465.1,150.4c-2.3,4.6-4.6,9.3-7.1,14c-1.9,3.5-4.9,5.7-8.1,7.1c-1,0.4-1.9,0.5-2.3-0.4
		c-0.3-0.9,0.4-1.8,1.2-2.4c3.1-3.5,4.5-7.4,5.5-11.5c0.9-4.1-0.5-6.4-4-6.7c-4.6-0.3-8,1.6-9.9,5.7c-2.4,5.5-2.3,10.2-0.1,14.1
		c1.4,2.6,1.2,3.3-2.1,5.4c-5.4,3.3-10.3,1.3-10.9-4.5c-1-9.5,5.1-20.2,14.3-24.7c2.6-1.3,5.3-1.9,7.7-1.9c0.5,0,1.4,0.1,1.6-0.9
		c0.1-0.9-0.8-0.9-1.3-0.9c-9.8-0.3-21.7,4.6-28.4,16.2c-0.4,0.8-0.9,1.3-1.2,2.1c-2.2,7.8-8.7,10.8-14,15.3
		c-1.8,1.4-3.1,0.1-2.6-2.3c0.5-3.1,2.3-5.9,3.7-8.9c2.9-5.8,6.2-11.7,9.3-17.5c1.8-3.1,1.4-3.6-1.2-3.6c-3.2-0.1-5.4,2.1-7.1,4.9
		c-2.1,3.5-4,7-5.5,10.7c-1,2.3-2.3,4.2-4.4,5.8c-2.4,2.1-5.1,4.2-7.6,6.4c-0.8,0.5-1.8,1.8-2.4,0.9c-0.8-0.8-0.4-1.8,0.1-2.7
		c1.8-3.6,3.6-7.1,5.5-10.8c1.8-3.3,3.7-6.7,5.4-10c2.4-5.1,1.6-7.3-3.1-7c-0.5,0-1.3,0-1.9,0c-0.3-0.3-0.1-0.4,0.1-0.9
		c2.7-0.9,5.4-1.4,6.6,1.2c1.2,2.6,0,5.5-1.6,8.5c-2.9,5.3-5.8,10.4-8.7,15.7c-0.8,1.3-0.9,2.9-1,4.5c4.2-4,9.6-6.2,12.3-12.1
		c1.6-3.7,3.6-7.3,5.7-10.9c2.6-4.6,7.6-6.3,10.7-5.8c1,0.1,1.3,0.9,0.5,2.2c-2.7,5.3-5.7,10.3-8.2,15.6c-2.2,4.2-4.6,8.5-5.8,13
		c-0.1,0.8-0.8,1.8-0.1,2.3c0.8,0.5,1.4-0.3,2.1-0.9c2.9-2.3,5.7-4.8,8.6-7.1c2.1-1.8,2.6-4.2,3.6-6.4c4.8-10.4,14.5-16.7,23.1-18.6
		c2.6-0.5,5.3-1.3,7.7-1.3c1.3,0,2.9,0,2.4,1.9c-0.4,1.8-2.1,2.6-3.5,2.7c-3.6,0.1-7.3,0.9-10.9,3.6c-6.6,4.9-11.2,16.1-9.3,22.5
		c1.3,4.5,5.1,5.5,9.6,2.7c1.6-1,2.4-2.1,1.3-3.5c-2.2-2.7-2.3-6.7-1.8-10.8c0.5-4.2,3.1-7.7,6.8-10c3.1-1.9,7.8-1.3,9.5,0.8
		c2.1,2.6,1.8,7.4-0.8,11.7c-1.4,2.6-3.2,5.1-4.6,7.7c2.2,0.4,6.3-2.2,8-5.4c1.8-3.1,3.2-6.3,4.9-9.5c1.4-2.6,2.6-5.4,4.6-7.6
		C466.8,149,465.5,149.5,465.1,150.4z"/>
	<path class="st0" d="M394.6,141c0,0.3-0.1,0.5-0.1,0.9c-5.5,1.8-10,5.8-14.5,10.2c-0.5,0.5-1.3,2.2-2.1,1.6c-0.9-0.5,0-1.9,0.5-2.7
		c3.1-5.9,6.3-11.9,9.3-17.7c3.3-6.6,6.7-13.1,10.2-19.7c1.3-2.4,0.4-3.1-1.4-3.1c-3.2,0-5.8,1.6-7.7,5.1
		c-3.7,7.1-7.6,14.1-11.2,21.3c-4,7.7-7.8,15.6-11.8,23.3c-0.8,1.4-2.1,2.3-3.2,3.2c-3.1,2.2-6.2,4.5-9.1,6.7
		c-0.4,0.3-1.2,1.4-1.6,0.8c-0.3-0.4,0.1-1.2,0.5-1.8c3.1-4.1,2.9-7.6,1-10.7c-1.6-2.6-2.9-5.3-3.5-8.5c-0.3-1.9-0.5-4.1,2.6-4.4
		c0.8,0,1.4-0.8,2.2-1.2c1.9-1,3.6-2.4,3.6-4.6c0-2.1-2.1-1.3-3.3-1.3c-8.2-0.1-14.7,9.5-14.8,16.6c0,2.6-0.9,4.2-2.9,6.2
		c-4,3.5-7.7,7-11.9,9.9c-1.4,1-3.1,2.3-4.2,1.4c-1.2-0.9-0.1-2.7,0.4-4.2c2.3-7,5.9-13.9,9.1-20.7c0.4-0.9,0.9-1.6,1.2-2.3
		c1-2.3,0.8-3.5-1.3-4.1c-4.8-1.2-9.9-0.1-15.2,1.6c-0.5,0.3-1,0.3-1.2-0.3c4.2-1.8,8.2-3.5,12.5-3.5c2.4,0,4.2,1,6.3,1.8
		c0.9,0.3,1.4,1,0.9,2.3c-2.2,4.6-4.2,9.1-6.4,13.9c-1.8,4-3.6,7.8-5.3,11.8c-1.2,3.1-0.4,3.5,2.2,2.1c5.1-3.1,9.6-7.4,14.1-11.7
		c0.8-0.5,0.8-1.2,0.8-1.9c0.3-4.1,1.2-8.1,3.7-12.1c2.4-3.6,5.3-5.9,8.9-6.8c1.8-0.4,3.5-1.3,5.3-1.2c1.3,0.1,2.3,0.8,2.3,2.2
		c0.1,1.4-0.4,3.1-1.9,4.2c-1.4,1.3-3.1,2.6-4.8,2.9c-1.8,0.3-1.9,1.3-1.8,2.6c0.3,2.6,1.3,4.6,2.3,6.8c0.4,0.9,1,1.8,1.4,2.7
		c1,2.7,2.3,5.7-1.3,10c7.1-4,12.5-8.5,15.6-16.3c2.1-4.9,4.9-9.9,7.4-14.8c2.3-4.6,4.6-9.3,7-14c2.1-4,4.2-7.8,7-11.3
		c1.9-2.4,7.3-3.7,9.1-2.4c0.9,0.8,0.8,1.8,0.1,2.9c-2.1,4-4.2,7.7-6.2,11.8c-3.2,6.6-7,12.8-10,19.5c-0.9,2.1-2.6,4-3.1,6.6
		C385,146.3,389.4,142.2,394.6,141z"/>
	<path class="st0" d="M379.2,155.9c2.2-2.7,4.8-4.9,7.8-5.5c2.9-0.5,4,0.9,2.7,4.1c-2.1,5.4-4.6,10.4-7.3,15.7
		c-1.8,3.3-4,6.6-4.8,10.2c-0.9,3.2,0.1,4.2,3.2,2.9c4.2-1.9,7.7-5.5,11.3-8.5c1.2-0.9,2.4-3.2,3.6-2.4c0.9,0.5-0.4,2.6-0.9,4.1
		c-0.5,2.4-2.2,5.4-0.1,7c1.9,1.6,4.4,0,6.8-1.2c4.2-2.2,7.8-5.7,11.7-8.7c2.6-2.2,2.9-2.1,2.9,1c0,10.3,6.2,11.9,14.8,8.7
		c3.7-1.3,7.3-3.7,10.7-6.8c1.3-1.2,2.4-1.8,4-1.4c1.6,0.4,3.2,0.3,5.1-0.8c1.9-1.2,2.3-0.1,1.6,1.8c-0.5,1.6-1.3,3.1-1.9,4.5
		c-0.3,0.9-0.9,1.8-0.4,2.3c1.2,1.8,3.5,0.8,5.4,0.9c1.3,0.1,2.2-1,2.9-2.4c4.9-8.7,10-17.5,17-25.1c1.4-1.4,2.9-2.9,4.5-4
		c1.3-0.8,2.6-1.2,3.6-0.3s0.3,2.3-0.1,3.6c-0.4,1.4-1.3,2.7-2.6,3.7c0.3-1.3,0.8-2.6,1.6-4c0.5-1,0.8-1.8,0.1-2.4
		c-0.5-0.8-1.3-0.3-2.3,0.1c-1.8,1-3.3,2.3-4.8,4c-5.9,6.7-10.7,14.4-15.2,22.1c-1,1.8-1.6,4.4-3.5,4.9c-2.6,0.8-5.1,0.4-7.4,0
		c-1-0.1-0.8-1.3-0.4-2.2c0.5-2.3,1.2-4.8,2.7-7c-0.9-0.5-1.8,0.8-2.4,0.5c-4.2-1.2-8,1.8-11.9,4.8c-3.1,2.4-6.6,3.7-9.9,4.8
		c-7,2.2-12.1-1.6-12.2-9.3c0-3.2-1-2.2-2.9-0.8c-4.2,3.5-8.5,6.7-13.1,9.1c-4.8,2.4-7-0.3-6.3-5.5c0.1-1.2,1.4-2.9,0.4-3.3
		c-1-0.4-2.2,1.4-3.2,2.2c-2.9,2.2-5.7,4.8-8.9,6.4c-1.6,0.9-3.1,1.8-4.1,0.5c-1-1.2-1-2.9-0.4-4.6c1.4-4,3.5-7.8,5.5-11.7
		c2.4-4.6,4.9-9.1,5.9-14.1c0.5-2.7-0.3-3.7-2.7-2.4c-2.1,1.2-4.2,2.3-5.9,4.4C379.5,156.2,379.4,156.2,379.2,155.9z"/>
	<path class="st0" d="M311.5,114.4c-1,2.1-2.6,2.6-4.2,2.4c-3.5-0.4-7.1-0.8-10.7-1.3c-2.1-0.3-3.3,0.3-4.4,3.1
		c-2.6,6.4-5.4,12.8-8.1,19.2c-1,2.3-0.5,3.1,1.4,2.7c3.6-0.5,7,0,10.3,0.3c1.6,0.1,4.2-0.5,3.5,2.7c-0.5,2.6-4,5.7-6.3,5.7
		c-3.7,0.1-7.6,0.1-11.2,0c-2.1,0-3.2,0.4-4.5,3.2c-4.1,8.5-8.2,16.8-14.1,24.6c-7.1,9.3-16.2,14.1-24.9,12.8
		c-5.8-0.9-8.5-9.1-4.6-14.8c2.2-3.3,5.9-5.4,9-4.9c1.3,0.3,1.4,1.2,1,2.6c-0.9,2.3-1.6,4.8-1.9,7.1c-0.1,1.6-0.3,3.3,1.3,3.7
		c1.6,0.4,3.2,0.4,5.1-1.2c3.6-3.3,6.4-7.6,8.9-11.8c2.7-4.6,5.3-9.3,7.8-14.1c0.3-0.1,0.5-0.1,0.8,0c0.4,1,0,2.3-0.5,3.5
		c-3.5,6.6-7,13.2-11.5,19.4c-1.3,1.8-2.7,3.3-4.4,4.5c-2.4,1.9-4.9,2.6-7.1,1.6c-2.3-1.2-2.4-3.6-2.2-6.6c0.1-1.4,0.8-2.9,1-4.4
		c0.3-1.6-0.3-2.2-1.8-1.6c-1.8,0.8-3.1,1.9-4,4.1c-1.4,3.5,0.1,8.6,2.9,9.6c7.8,2.7,17.6-2.2,23.9-10.7c5.1-7,9.1-14.4,12.8-22.1
		c2.4-5.4,4-6.6,8.6-6.6c3.1,0,6.2,0.3,9.5-0.4c0.4-0.1,0.9-0.1,1.4-0.3c1-0.4,2.3-0.9,2.4-2.2s-1.2-1-1.9-1c-3.5-0.1-7,0-10.3-0.3
		c-3.1-0.1-4-1.9-2.2-5.5c3.1-6.3,5.3-12.8,8.2-19c2.2-4.4,3.3-5.4,7.4-5.3c2.6,0,5.1,0.8,7.7,0.8c2.1,0,4.2-0.5,6.3-0.5
		C312,113.9,312,114.1,311.5,114.4z"/>
	<path class="st0" d="M465.1,150.4c0.4-0.9,0.8-1.8,1.2-2.6c1.9-3.1,7.6-5.7,9.6-4.4c1.6,1,0.3,2.7-0.5,4.4
		c-1.3,2.4-2.6,4.8-4.1,7.3c-0.1,0.3-0.1,0.5-0.3,1.3c3.2-2.6,5.8-5.7,8.9-8c3.2-2.4,6.3-4.5,9.8-5.7c2.4-0.9,4.5-1.2,5.8,0.9
		c1.2,2.1,0.9,4.5-0.5,7.3c-3.6,6.7-7.3,13.2-10.9,19.9c-0.4,0.8-0.9,1.6-0.5,2.6c3.5-1.9,6.4-5.1,9.8-7.4c1.3-0.9,2.9-3.5,3.7-1.9
		c0.9,1.6-0.5,4.2-2.4,5.8c-4.8,4.4-9.9,8.5-15.2,11.9c-1.6,1.2-3.2,2.1-4.8,3.1c-1.6,1-3.1,1.6-4.4,0.5c-1.3-1-0.8-2.7-0.3-4.6
		c1.4-5.7,4.8-10.9,7.8-16.1c0.5-1,0.9-2.3,2.1-3.1c-0.3,1.8-1.2,3.2-2.1,4.8c-2.7,4.8-5.8,9.6-7.3,14.8c-0.8,2.6,0.1,3.5,2.3,3.1
		c2.9-0.4,5.4-2.6,7.8-4.5c4.4-3.2,8.6-6.8,12.8-10.2c1.6-1.3,2.3-2.7,2.3-5.1c-3.3,2.6-6.4,5.3-9.6,7.7c-1.2,0.9-2.4,2.6-3.5,1.6
		c-1-1,0.1-2.9,0.9-4.4c1.9-3.6,4.1-7.1,6.2-10.8c1.8-3.1,3.6-6.2,4.6-9.5c1.8-4.9,0.8-6.7-3.7-5.9c-4,0.8-7.6,3.3-11.1,6.3
		c-2.9,2.4-5.7,5.3-8.2,8.1c-0.5,0.5-1.3,2.1-2.2,1.4c-0.8-0.5,0-1.9,0.5-2.7c1.8-3.2,3.3-6.6,5.3-9.6c0.9-1.6,0.5-2.1-0.8-2.2
		c-3.7-0.4-5.1,0.3-7.7,4.5C466,149.8,465.5,150.1,465.1,150.4z"/>
	<path class="st0" d="M311.5,114.4c0-0.3,0.1-0.5,0.1-0.9c-0.1-1,0.3-2.1,1-2.9c1.6-2.2,0.8-2.4-0.9-2.4c-8-0.1-15.8-0.9-24-0.1
		c-8.2,0.8-16.7,2.4-25.2,8c-2.4,1.8-4.8,3.7-7,5.9c-4.5,4.9-5.9,11.9-3.6,16.6c1,1.9,2.3,3.5,4,4.8c0.5,0.5,1.2,1.6,2.2,0.4
		c1-1,1.2-2.3,0.9-3.5c-0.1-0.9-0.9-1.3-1.3-1.8c-1.4-1.6-2.1-3.7-2.1-6.3c0-3.6,2.2-7,5.4-8.5c0.3,0,0.4,0.1,0.4,0.4
		c-4.6,6.2-4.9,9.6-0.9,13.5c1.8,1.6,0.5,7.3-1.9,9.3c-0.9,0.8-1.8,0.5-2.3,0.1c-3.7-2.6-6.8-5.8-7.7-11.2c-1-6.3,2.1-11.9,6.8-17
		c5.1-5.4,10.9-8.5,17-10.4c10.9-3.6,21.3-3.7,31.7-3.7c4,0,7.8,0,11.8,0.1c2.3,0.1,2.4,1,0.8,3.3
		C315.3,110.7,313.6,112.9,311.5,114.4z"/>
	<path class="st0" d="M379.2,155.9c0.1,0,0.4,0,0.5,0c-5.8,5.9-9.9,13-13.4,20.2c-2.9,5.8-4.8,7.1-9.9,7c-2.7-0.1-3.2-1-1.4-4.4
		c1.2-2.2,2.7-4.4,2.9-7.1c-4.5,3.2-8.9,6.3-13.2,8.9c-7.4,4.4-14,5.5-19.4,0.9c-0.4-0.4-1-0.9-1.2-1.6c-0.4-2.4-1.6-2.7-4.1-0.8
		c-2.3,1.8-4.8,3.1-7.3,4.4c-2.7,1.4-4.2,0.5-4.5-2.3c0-0.9-0.1-1.8-0.1-2.6c0-0.9,0.3-1.9,0.5-2.9c-1,0.1-2.1,1.4-2.9,1
		c0.8-0.9,1.6-1.6,2.3-2.4c0.9-0.8,1.8-1.6,2.4-1c0.5,0.4,0,1.6-0.1,2.4c-0.5,2.1-1.2,4.1-1,5.9c1.3,2.2,3.5,0.9,5.4-0.3
		c2.4-1.3,4.8-3.1,7.3-4.6c1.2-0.9,2.1-1.2,2.4,0.3c2.2,5.9,9,7.8,16.2,4.5c5.8-2.7,11.3-6.7,16.8-10.8c0.8-0.5,1.8-2.1,2.4-1
		c0.5,0.8-0.1,2.1-0.8,2.9c-1.6,2.3-2.2,5.1-3.6,7.6c-0.8,1.4-0.4,2.1,0.9,2.2c4.1,0.4,5.5-0.4,8.1-4.9c4-6.8,7.1-14.1,12.8-19.9
		C378.1,156.8,378.6,156.3,379.2,155.9z"/>
	<path class="st0" d="M265.2,156.7c-0.1,0-0.3,0-0.4,0c0.1-0.4,0.1-0.9,0.4-1.2c1.6-2.6,1.3-3.6-1.4-2.9c-1,0.3-2.1-0.1-2.2-1.3
		c-0.1-1.3,0.3-2.6,1.3-3.7c1.3-1.6,3.1-2.4,4.5-2.7c3.3-0.4,4.6-3.2,6.2-5.9c2.6-5.7,5.3-11.3,8.6-16.8c1.4-2.3,3.5-3.6,5.4-6.3
		c-3.1-0.3-6.2,0-9.1,0.8c-5.7,1.4-11.3,4.1-16.6,8.2c0-0.1-0.1-0.3-0.1-0.4c0.3-2.2,1.9-3.2,3.3-4.2c4.4-3.1,8.9-5.1,13.5-5.9
		c2.9-0.5,5.9-1.4,8.7-1.2c1.2,0.1,2.3,0.1,2.6,1.4c0.3,1.4-0.8,2.7-1.8,3.6c-5.3,4.5-7.4,10.9-10.3,16.6c-1.2,2.3-2.4,4.8-3.5,7.1
		c-0.9,2.1-2.4,3.5-4.4,4.2c-1,0.4-2.1,1-3.1,1.4c-0.9,0.4-1.9,0.8-1.9,1.9c-0.1,1.2,1,0.5,1.6,0.5c1.4,0,2.2,0.8,2.1,2.4
		C268.3,154.3,267.4,156.1,265.2,156.7z"/>
	<path class="st0" d="M421.8,126.1c1.2-3.7,4.5-7,7.3-7c2.4,0,3.5,1.6,2.7,4.2c-1,3.1-4.9,6.3-8,6.3
		C421.8,129.7,421,128.5,421.8,126.1z"/>
	<path class="st0" d="M313.8,142.4c0.4,0.1,0.8,0.1,1.2,0.3c-1.2,1.6-2.6,1.8-4,2.4c-7.7,4.2-13.9,10.7-18.4,18.6
		c-2.3,4.2-3.5,8.9-3.7,13.2c-0.3,5.1,4,6.7,9.3,4.2c0.5-0.3,1.2-0.5,1.6-0.9c1-0.1,2.1-2.1,3.1-1c-6.6,5.1-13.9,6.3-14.7,0.5
		c-0.5-4.1-0.1-8.6,2.1-13.2C295.7,155.3,303.8,147.6,313.8,142.4z"/>
	<path class="st0" d="M303,179.2c-1-0.3-2.1,1.3-3.1,1c1.6-1.4,3.2-2.7,5.1-3.1C304.7,178.2,303.8,178.7,303,179.2z"/>
	<path d="M335.5,179.8c-1-0.1-2.2-0.1-3.1-0.5c-4.5-2.2-4.1-6.7,0.9-11.2c0.5-0.5,1.3-1.2,2.1-1.8c4.9-4.4,4.9-4.4,6.7,0.8
		c0.5,1.6,1.2,3.3,1.2,5.4c0.1,4.4-2.1,7-6.2,7.3c-0.5,0-1,0-1.6,0C335.5,179.6,335.5,179.6,335.5,179.8z"/>
	<path class="st0" d="M309.4,181.6c-0.8-1.6-0.1-3.6,0.5-5.5c0.9-2.3,0.4-3.1-1.8-1.9c0.4-0.5,0.8-1,1.6-2.3
		c-1.9,1.2-3.2,2.1-4.5,2.7c-4.5,2.6-7.4,1-7-4c0.5-6.6,4.4-12.1,8.9-17.3c3.6-4.1,7.7-7.3,12.2-9.3c0.1-0.1,0.3-0.3,0.5-0.3
		c1.6-0.5,3.3-1,4.4,0.1c0.9,1-0.1,2.9-0.9,4.4c-2.9,5.9-5.4,12.5-9,17.9c-3.3,5.1-2.6,9.5-4.6,14
		C309.6,180.5,309.4,181.1,309.4,181.6z"/>
	<path class="st0" d="M442.5,160c0.4-2.4,1.3-4.5,3.5-5.4c1.6-0.5,3.3-0.9,4.2,0.4c1,1.6,1,4-0.4,6.3c-1.2,1.8-1.8,3.7-3.1,5.5
		c-1.9,2.2-2.6,2.4-3.6,0.4C442.1,165.1,441.3,162.7,442.5,160z"/>
	<path class="st0" d="M265.2,156.7c0.5-0.9,1.3-1.9,1.8-2.7c0.9-1.9,1.3-3.5-1.4-2.4c-1.3,0.4-2.9,0.9-2.9-1s1.4-3.2,3.1-4
		c1.2-0.5,2.4-1.2,3.6-1.4c1.8-0.4,3.1-1.6,3.7-3.3c1.9-4.4,4.2-8.6,6.2-12.8c2.2-4.5,4.5-8.7,8.5-11.9c0.8-0.5,1.8-1.3,1.4-2.3
		c-0.1-0.9-1.2-0.5-1.9-0.5c-8.7,0.8-17.5,2.4-25.7,10.2c-5.1,4.6-5.9,9.8-2.4,13.6c2.2,2.4,2.2,4,0.1,7.7c-0.4,0.9-0.9,1.6-1.8,1
		c-4.1-3.1-7.7-6.3-7.4-13.1c0.3-7.1,4.5-12.2,9.9-16.6c6.2-4.8,12.6-7.3,19.2-8.7c12.5-2.7,24-1.2,35.7-1.3c1.6,0,2.1,0.5,0.4,2.3
		c-1.3,1.4-2.4,2.9-3.6,4.5c-1.3,1.6-2.7,2.2-4.4,2.1c-3.6-0.4-7.3-0.5-10.9-0.9c-2.1-0.3-3.2,0.4-4.2,2.9
		c-2.9,6.8-5.9,13.6-9.1,20.6c-1.3,3.1-1.2,3.7,1.4,3.7c4.2,0.1,8.5,0.1,12.5,0.3c2.3,0.1,2.4,1.3,0.5,3.5c-1.3,1.8-2.9,2.6-4.6,2.6
		c-3.3,0.1-6.8,0.3-10.2,0.3c-4.4,0.1-4.8,0.5-7.1,5.7c-4.2,9.3-9,18.4-16.2,26.2c-6.3,7-16.3,10.3-22.9,7.4
		c-3.6-1.6-4.5-8.5-1.8-13.1c1.3-2.1,5.3-4.2,7-3.7c1.2,0.3,0.8,1.3,0.5,2.3c-0.5,2.6-1.9,5.3-1.4,7.8c0.8,4,3.7,4.8,7.6,1.9
		c3.1-2.4,5.3-5.8,7.3-9C259.3,168.5,262.8,162.9,265.2,156.7z"/>
	<path d="M299.9,167.7c2.9-10.3,12.8-20.8,21.3-23.3c0.9-0.3,1.8-0.5,2.3,0c0.5,0.8-0.4,1.8-0.9,2.6c-3.1,6.4-6.2,12.8-9.3,19.2
		c-2.3,4.5-6.4,6.7-10.3,8.2c-3.1,1.2-4.5-0.8-3.7-4.1C299.4,169.3,299.7,168.1,299.9,167.7z"/>
	<path d="M449,160.4c-0.3,1.8-1.6,4-3.1,5.9c-1,1.6-1.8,1.4-2.2,0.3c-0.8-2.1-1.3-4.1-0.5-6.7c0.8-3.2,2.4-4.9,4.5-4.9
		C449.9,155,450.3,156.4,449,160.4z"/>
</g>
<g>
	<path class="st0" d="M346.3,76.1c-0.4,1.6-0.9,3.1-1.4,5.1c5.4-2.7,9.6-6.8,14.1-10.4c4.6-3.6,7.7-7.7,8.5-13.6s4.2-10.8,9.5-14
		c2.6-1.6,5.4-2.2,8-2.3c1.8-0.1,2.9,0.8,3.3,2.3c0.4,1.9-1.2,3.3-2.6,4.8c-1.3,1.3-2.9,2.3-4.4,2.6c-2.9,0.8-2.6,2.3-2.3,4.2
		c0.8,3.3,2.3,6.3,4,9.1c1.3,2.2,1.8,4.6,0.4,7.8c-0.3,0.8-0.9,1.8-0.1,2.1s1.3-0.4,1.9-1c3.3-2.7,7.4-4.2,9.6-8.7
		c2.4-4.9,5.1-9.9,7.6-14.8c2.6-5.1,5.4-10.2,7.8-15.4c2.9-5.9,6.2-11.9,9.6-17.7c2.9-4.6,8.5-7.1,11.8-4.9c0.8,0.4,0.9,1.2,0.4,2.2
		c-3.1,5.8-5.9,11.8-9,17.6c-3.6,7-7.3,13.9-10.8,20.8c-0.8,1.4-1.4,2.7-2.6,4.9c2.4-2.1,4.4-3.6,6.3-5.3c3.7-3.2,7.8-5.4,12.1-6.7
		c5.4-1.6,8.2,2.6,5.4,8.2c-2.9,5.8-6.3,11.5-9.3,17.2c-1.3,2.3-3.2,5.7-2.3,6.8c0.9,1.2,3.2-2.2,4.9-3.2c6.7-4.2,9-11.2,12.5-17.7
		c3.3-6.4,6.6-9.8,12.3-9.8c1.9,0,2.4,1,1.3,3.2c-2.6,5.1-5.1,10-7.8,15c-2.6,4.8-4.6,9.8-7,14.5c-0.5,1.2-0.8,2.3,0,3.1
		c0.8,0.5,1.6-0.4,2.2-1c4.8-4,10.4-7.1,13.2-13.4c2.1-4.5,4.5-8.7,6.8-13.1c3.5-6.6,6.2-7.8,11.7-8c1.8,0,2.2,1,1.4,2.9
		c-1.2,3.1-2.9,5.7-4.6,8.6c-0.5-0.4-0.4-1.2-0.4-1.8c0-1.6,1-3.1,1.8-4.6c0.8-1.8,0.1-2.2-1.3-1.9c-2.1,0.4-3.7,1.4-5.1,3.6
		c-3.1,4.8-5.5,9.8-8,14.7c-1.3,2.9-3.1,5.3-5.4,7.3c-2.9,2.4-5.8,5.1-8.7,7.4c-1.8,1.3-3.3,2.1-4.8,1.2c-1.4-0.9-1.3-2.6-0.8-4.5
		c1.6-6.2,5.1-11.7,7.8-17.3c1.8-3.5,3.5-6.8,5.4-10.3c1.3-2.4,0.3-2.4-1.3-2.2c-2.2,0.4-3.6,2.2-5.1,4.1c-2.2,3.2-3.7,6.8-5.4,10.3
		c-1.4,3.3-3.3,6.2-6.3,8.2c-2.3,1.8-4.5,4-6.8,5.8c-1.6,1.4-3.5,2.9-5.1,1.6c-1.6-1.3-0.9-3.6,0.1-5.7c2.1-4.2,4.4-8.5,6.7-12.5
		c1.8-3.1,3.5-6.2,4.8-9.3c1.3-3.5,0.8-4.8-2.2-4.9c-3.1-0.1-6.2,1.3-8.9,3.5c-3.3,2.4-6.7,4.8-9.6,8c-1,1.2-2.2,2.3-3.3,1.6
		c-1-0.8-0.5-2.2,0.1-3.5c3.6-7.6,7.6-15.2,11.5-22.5c3.1-5.9,6.2-11.8,9.3-17.7c1.2-2.2,0.8-3.1-1.4-2.9c-2.4,0.1-4.1,2.2-5.4,4.5
		c-4.1,6.7-7.3,13.6-10.9,20.6c-4.5,8.9-9,17.6-13.5,26.5c-1.9,3.7-5.3,5.5-8.1,7.8c-1.9,1.6-4.1,2.6-6.2,4.1
		c-1,0.8-2.1,1.2-2.7,0.4c-0.8-0.8-0.8-1.9-0.1-2.9c3.2-5.1,1.8-8.5-0.1-11.8c-1.4-2.6-2.6-5.4-2.9-8.7c-0.1-2.6,0.9-4.4,3.3-5.5
		c1.3-0.5,2.6-1.2,4-2.1c0.5-0.4,1.2-1,1.2-1.8c0-0.9-0.8-0.8-1.2-0.8c-7.4-1.2-14.5,8.2-14.7,15.2c-0.1,4.1-1.9,6.7-4.9,9.6
		c-4.9,4.8-10.2,9-15.7,12.8c-2.6,1.9-4.8,1.9-5.5,0.1c-0.8-1.8,0.1-4,2.7-6.2C345.8,76,346.2,76,346.3,76.1z"/>
	<path class="st0" d="M222.4,78.3c4.9-6.6,7.8-13.9,11.5-21c0.9-1.6,0.8-2.6-1-2.4c-2.2,0.3-4.4,0.4-6.6,0.8c-1.9,0.3-3.5,0-3.2-2.3
		c0.3-2.4,1.9-4.6,4.2-5.1c2.7-0.5,5.5-1.8,8.1-1.8c2.9,0.1,4.6-1.9,6.2-5.1c2.3-5.5,5.5-10.7,9.6-15.3c1.9-2.2,4.1-3.6,6.7-5.8
		c-8-2.2-15.2-4.8-24.2-2.9c-3.6,0.8-7.1,1-10.8,3.6c-4.4,3.1-5.5,6.2-3.6,9.8c0.9,1.8,2.4,2.7,3.7,4.1c1.4,1.4,0.8,6.2-1.4,8
		c-0.9,0.8-1.6,0.8-2.2,0.3c-2.2-1.6-4.5-3.1-6.3-5.4c-6.6-8.9-0.8-21.7,10.3-27.6c6.8-3.6,13.4-5.1,19.8-4.1
		c6.2,1,12.1,2.2,17.9,3.6c3.7,1,7.8-0.5,11.8-1.3c3.1-0.5,3.3,0,1.8,3.2c-1,2.1-2.4,4-4.2,5.4c-7.7,6.8-12.5,15.7-17.7,24.3
		c-1,1.6-0.8,2.6,0.9,2.6c2.6,0,5.3-0.1,7.8-0.1c1.3,0,2.2-0.8,3.1-2.2c5.3-8.2,11.2-16.1,18.4-22.5c0.3-0.1,0.5-0.1,0.9,0.1
		c0.3,1.6-0.9,2.7-1.9,4c-5.5,5.9-10.4,12.1-15,18.9c-1.8,2.7-4,4.1-6.6,4.1c-2.1,0-4.2,0.8-6.3,1c-4.2,0.5-5.7-1.8-3.2-6.3
		c4.9-9,10.3-17.9,18-25.1c0.5-0.4,1.2-0.9,1.6-1.4c0.5-0.8,1.4-1.6,1.2-2.4c-0.3-0.9-1.2,0-1.9,0c-4.9,0.5-9.8,0.4-14.3-0.5
		c-6.6-1.4-12.8-4-20.2-2.7c-6.2,1-12.3,2.7-17.7,8.9c-4.2,4.9-5.7,10.9-4,15.7c1,2.6,3.1,4.2,4.9,5.9c0.4,0.4,1.2,0.8,1.9-0.1
		c0.8-0.9,0.4-1.4,0.1-2.1c-0.4-0.9-1.2-1.4-1.8-2.1c-2.6-2.6-3.7-5.9-1.6-10.8c2.2-4.6,6.2-6.7,10-7.8c9.1-2.7,17.7-2.9,25.5,0
		c1.4,0.5,3.2,0.1,4.8,0.5c2.9,0.9,2.9,4.2-0.1,6.6c-6.8,5.3-11.1,12.3-14.7,19.9c-1.9,3.7-3.6,5.3-7.1,5.5c-2.3,0.3-4.6,1.4-7,1.4
		c-0.8,0-1.6,0.3-1.8,1.3s0.8,0.9,1.3,1c1.4,0.1,2.9,0,4.4-0.4c3.2-0.8,4.1,0.5,3.5,4.2c-0.5,3.2-2.4,5.9-3.7,8.9
		c-1.9,4.2-4.4,8.5-7,12.3c-0.9,1.3-1.9,2.6-3.3,3.1c-0.3,0.1-0.5,0-0.9-0.1C221,79.5,221.8,78.9,222.4,78.3z"/>
	<path class="st0" d="M350.3,84.6c-1.3-0.4-2.4,0.8-3.5,1.6c-2.4,2.1-5.3,3.3-7.8,4.8c-2.3,1.2-4.6,1.9-5.7-0.4
		c-1-2.2-1.4-4.8,0.1-8c3.5-6.7,7.7-13.1,12.2-20.1c-1.9,0.8-3.1,2.1-4.4,3.1c-9.1,7.6-17.9,15.8-27.8,22c-1.8,1-3.5,2.2-5.4,3.1
		c-3.7,1.9-6.2-0.1-5.3-4.2c0.3-1.4,1.2-3.1,0.9-4.8c-3.5,2.7-6.8,5.8-10.4,7.6c-4.2,1.9-8.5,4-11.2,0.3c-1.8-2.2-1.8-5.3-1-8.9
		c-4.2,2.6-8.1,5.5-12.3,7.7c-3.3,1.8-6.8,2.9-10.2,4c-5.8,1.6-10.2-3.7-8.9-11.1c1.6-8.9,4-17.6,8.2-26.3c0.8-1.3,0.5-2.2-0.8-2.2
		c-3.1-0.3-6.4,0.3-9.6,1.4c-1.8,0.5-2.6,3.5-3.6,5.4c-4.2,8.2-8.6,16.4-15.2,23.3c-10.3,10.9-25.7,12.2-29.8,0.9
		c-1.4-4.1-0.9-7.6,2.1-10.8c2.3-2.4,8.5-4,10.7-2.7c0.9,0.4,1,1.4,0.8,2.6c-0.4,1.6-0.9,3.2-1.2,4.6c-1.2,4.8-0.5,6.2,3.3,6.7
		c0,0.3,0,0.8-0.3,1c-3.3,1.4-5.4,0.1-5.7-3.3c-0.1-2.3,0.1-4.8,0.5-7.3c0.3-1.9-0.4-2.3-2.1-2.1c-5.1,1.2-7.3,4.4-5.8,9.1
		c1.6,5.4,5.9,6.7,11.2,6.6c7.3-0.1,13.4-4.5,18.9-11.8c4.8-6.4,8.2-13.2,11.9-20.1c2.7-5.3,4.2-6.4,8.9-6.4c1.6,0,3.3,0,4.9,0
		c3.5,0.1,4.5,1.6,2.6,5.7c-1.9,4.2-3.3,8.5-4.8,12.6c-1.9,5.3-3.1,10.7-2.6,15.6c0.3,2.9,1.8,4.8,4.8,4.8c6.6,0.3,12.8-3.6,19-7.7
		c0.9-0.5,1.6-1.3,2.4-1.9c3.1-1.8,4.4-1.3,4.6,1.9c0.1,1,0.1,2.2,0.1,3.2c0.3,3.1,2.2,4.4,5.1,3.6c3.7-0.9,7.3-2.6,10.7-5.5
		c1.3-1,2.4-2.3,4-3.1c2.1-1.2,3.2-0.5,3.1,1.8c0,0.4-0.1,0.9-0.3,1.3c-1,6.2,0.1,7,5.4,3.6c5.4-3.3,10.8-6.8,15.6-11.3
		c5.5-4.9,11.5-9.3,17-14.1c0.3-0.3,0.8-0.5,1.2-0.9c1-0.8,2.2-1.4,3.1-0.5c0.9,0.9,0.4,2.3-0.3,3.6c-2.2,4.1-5.1,7.8-7.4,11.8
		c-2.1,3.3-4.2,6.6-4.9,10.3c-0.5,3.3,0.3,4.4,3.3,3.3c2.3-0.8,4.4-2.3,6.6-3.7c1.4-1,2.9-2.1,4.5-1.9
		C350.2,83.2,351.2,83.2,350.3,84.6z"/>
	<path class="st0" d="M469.4,56.6c-0.1,0.8-0.4,1.4-0.5,2.1c-0.5,0.9-1.2,1.6-1,2.7c3.3-2.9,6.3-6.3,9.8-8.9
		c3.1-2.3,6.3-4.4,9.6-5.7c3.1-1.2,5.5-1.6,7,0.9c1.6,2.6,0.3,5.9-1.4,9.1c-3.6,6.8-7.4,13.5-11.1,20.3c-0.3,0.5-1,1.2-0.4,1.8
		c0.4,0.3,1,0.1,1.4-0.3c3.5-3.2,7.4-5.4,9.9-10.4c5.7-11.9,18-22.7,29.6-21.8c4,0.3,7.6,1.6,7.7,6.4c0.1,4.6-2.1,9.3-6.2,13.1
		c-4.1,3.7-8.2,6.6-13.1,6.4c-2.4-0.1-4.2-1.2-5.5-2.9c-1.4-2.1-2.2-1.3-3.3,1.3c-1.4,3.6-2.4,7.1-2.7,10.8
		c-0.4,4.5,3.2,6.8,7.3,5.1c6.4-2.7,11.9-7.7,17-13c2.6-2.6,4.1-6.8,6.3-10.2c6.8-10.8,17.7-17.3,26.9-16.4
		c6.6,0.5,9.1,5.9,6.2,12.5c-4.9,10.3-18.8,18.5-24.3,9.5c-0.1-0.3-0.4-0.4-0.9-0.9c-4,5.9-5.7,11.7-4.1,17.3
		c0.3,0.4,0.1,0.9-0.3,1.3c-3.1,0-2.7-2.9-2.4-5.4c0.4-3.3,1.4-7,2.9-10.3c2.1-5.1,4.9-6.3,7.7-3.2c4,4.8,14.8,0.3,18.4-7.6
		c0.8-1.8,1.6-3.5,1.6-5.3c0-2.3-0.8-3.7-2.6-4.5c-6.8-2.3-15.2,0.8-22,7.8c-4,4.1-7,8.5-9.1,13.4c-1,2.4-2.7,4.2-4.8,5.8
		c-4.4,3.5-8.6,7.1-13.2,9.9c-7.4,4.5-12.6,2.2-12.5-5.9c0-4.5,1.3-9,4.2-13.5c1.9-2.9,3.5-3.3,5.3-1.8c0.4,0.4,0.9,0.9,1.3,1.3
		c5.5,6.2,16.7-2.7,19.7-10.8c1-3.1,0-5.9-2.4-6.8c-5.9-2.1-12.1-0.3-18.6,4.5c-5.7,4.4-9.5,10.3-12.8,16.6
		c-0.9,1.8-1.9,3.3-3.5,4.6c-2.2,1.9-4.5,3.5-6.7,5.3c-1.3,1-2.6,1.3-3.6,0.5s-0.9-2.1-0.4-3.5c0.9-2.9,2.6-5.4,4.1-8
		c2.7-4.8,5.7-9.6,7.8-14.7c2.4-5.7,1.2-7.4-4-5.8c-5.3,1.8-9.8,5.8-14.1,9.9c-1.9,1.8-3.5,3.6-5.3,5.5c-0.9,0.9-1.9,1.6-2.7,1
		c-0.9-0.5-0.9-1.6-0.4-2.7C464.9,60.4,467.5,57.2,469.4,56.6z"/>
	<path class="st0" d="M346.3,76.1c-0.1,0-0.3,0-0.5,0c-1-1.3,0-2.7,0.9-4.2c3.3-5.7,7.4-10.9,11.1-16.4c1.8-2.7,1.8-3.2-0.9-3.3
		c-1.4-0.1-3.1,0-4.6-0.1c-3.3-0.4-4.1-2.9-2.1-6.7c0.5-1.2,1.8-2.4,0.8-3.3c-0.9-0.9-2.1,0-3.1,0.5c-1.9,1-3.5,2.3-4.1,4.6
		c-0.5,2.2,0.4,3.3,1.6,4.4c2.9,2.2,2.7,4.5-0.9,7.8c-6.8,5.9-13.5,12.1-20.6,17.9c-1.4,1.2-2.9,2.1-4.4,2.7c-4,1.9-6.2,0-4.9-4.4
		c1.2-4.4,3.5-8.6,5.4-12.8c1.8-4.2,4-8.2,5.7-12.3c1-2.2,0.5-3.2-1.3-3.6c-5.5-1.2-11.5,0.3-17.5,3.5c-7.3,4-13.9,9.3-18.1,17.3
		c-4,7.4-9.8,11.2-15.8,14.7c-2.3,1.3-4.6,2.2-7,3.1c-4.1,1.4-7.4-0.3-8.1-4.4c-0.5-3.2-0.5-6.6,0.5-10.3c1.8-5.7,2.9-11.3,5.9-17
		c1.4-2.7,3.2-4.2,5.7-4.4c3.3-0.1,6.7-0.9,10-0.8c0.9,0,2.1,0,2.3-1.3c0.4-1.4-1-1-1.8-1c-2.4-0.1-5.1,0.1-7.4-0.3
		c-1.6-0.3-1.8-0.9-0.5-2.4c4,0.5,8.2-0.1,12.2,0.5c2.9,0.4,1.4,2.6,0.3,4.4c-1.8,2.4-4.1,3.1-6.3,3.2c-2.9,0.1-5.8,0.3-8.7,0.4
		c-1.6,0-3.1,0.5-4,2.6c-2.4,6.7-5.7,13.4-6.2,20.3c-0.4,7.4,2.6,9.8,9.5,6.6c4.4-2.1,8.5-4.9,12.5-7.8c1-0.8,1.9-1.8,2.4-2.9
		c7-12.6,16.6-21.2,28.5-25.6c5.7-2.1,11.3-2.7,16.1-0.3c1.8,0.9,0.9,2.6,0,4.2c-4.1,8.1-7.8,16.4-11.2,24.9
		c-0.5,1.4-1.6,3.1-0.4,4.1c1,0.9,2.2-0.4,3.3-1.2c8.2-5.5,15.6-13,23.1-19.5c1.9-1.6,1.4-2.6,0.3-3.5c-3.5-2.6-3.7-4.2-2.1-8
		c1.9-3.7,6.2-7,9.5-7.1c3.6-0.1,4.4,2.3,1.9,6.2c-2.6,4-2.3,4.9,1.3,5.3c2.1,0.1,4.1,0,6.2-0.4c2.4-0.3,2.9,1.2,1.2,3.7
		C356.7,60.8,351.6,68.5,346.3,76.1z"/>
	<path class="st0" d="M479.3,62.6c0.3-0.5,0.5-1,0.9-1.6c0.8-1.2,1.3-2.4,0.4-3.3c-0.9-0.9-2.1-0.4-3.3,0.4
		c-3.3,2.4-6.2,5.7-8.7,9.1c-5.3,7-9.9,14.4-14.1,22.1c-1,1.9-2.2,2.7-3.7,2.6c-0.9-0.1-1.9,0-2.9,0c-4.5-0.1-4.8-1-2.2-6.4
		c0.4-1,1.3-1.9,1.2-3.3c-3.1,2.2-5.9,4.4-8.9,6.6c-2.3,1.9-4.9,2.9-7.4,4c-3.5,1.3-5.8-1.4-4.9-5.8c0.3-1.8,1-3.5,1.6-5.7
		c-1.9,0.5-3.1,2.1-4.4,3.1c-3.3,2.7-6.7,5.8-10.4,7.6c-3.7,1.8-5.9-0.1-4.5-4.4c1.3-3.3,2.6-6.8,5.1-9.9c0.5,0.3,0.5,1,0.4,1.8
		c0,2.2-1.8,4.1-2.4,6.3c-0.4,1.2-1.2,2.6-0.3,3.5c0.8,0.8,2.1,0.1,3.1-0.5c3.2-1.9,6.2-4.2,9-6.8c1.2-1,2.3-2.1,3.6-2.9
		c1-0.9,2.2-1.4,3.2-0.8c1,0.8,0.9,2.1,0.4,3.5c-0.5,1.8-1.4,3.5-1.6,5.4c-0.1,2.9,0.8,3.7,3.5,2.7c3.3-1.2,6.4-3.2,9.3-5.7
		c1.4-1.2,2.9-2.6,4.5-3.5c2.4-1.3,3.6-0.4,3.2,2.3c-0.1,0.8-0.4,1.6-0.5,2.3c-0.3,1.6-1.6,3.6,0.5,4c1.9,0.1,3.5,0.1,4.9-2.6
		c4.1-7.4,8.7-14.7,14-21.3c2.7-3.5,5.7-6.7,9.3-9c2.6-1.8,5.1-1.4,5.9,0.3c0.9,1.8,0,5.3-1.9,7.3c-0.8,0.9-1.6,1.6-2.4,1
		C478.6,63.9,478.7,63.4,479.3,62.6z"/>
	<path class="st0" d="M412.3,80.1c0.1-0.8,0.3-1.6,0.5-2.3c1.4-3.2,2.9-6.6,4.6-9.8c1.3-2.4,2.3-4.9,3.1-7.6c0.4-1.3,1.4-3.2,0.1-4
		c-1.2-0.5-2.6-0.4-4.4,0.5c-5.7,3.6-10,8.7-13.9,14.5c-2.9,4.6-5.4,9.5-8,14.1c-2.7,4.9-6.6,6.7-10.3,5.1c-1.2-0.4-0.8-1.6-0.5-2.6
		c0.4-2.4,2.3-4.5,3.2-6.8c0.3-0.9,1.2-2.2,0.4-2.7c-0.8-0.4-1.4,0.5-2.2,1.2c-5.3,3.7-10.4,7.6-16.1,10.2c-6.8,3.2-12.5,2.9-17.2-1
		c-1.2-1-2.1-2.3-1.6-4.4c0-0.9-0.8-0.8-1.4-0.9c1.3-2.9,2.9-2.1,3.2-0.8c0.9,4.2,3.7,5.7,7.4,6.2c4,0.4,8-0.5,12.2-3.1
		c4.8-2.7,9.3-5.8,13.9-9.3c1.6-1.2,3.2-2.4,4.5-1.4c1.4,1.2,0.4,3.2-0.4,5.1c-0.8,1.4-1.6,3.1-2.1,4.6c-0.3,1-1.6,2.3-0.4,2.9
		c1.2,0.5,2.6,0.4,4-1c2.1-2.3,3.6-4.9,4.8-7.7c3.7-8.7,9.6-15.7,16.4-22c1.8-1.6,3.5-2.7,5.5-3.2c4.2-1,6.6,1.4,4.9,6.3
		c-2.1,5.9-4.9,11.9-8.1,17.6C414.1,78.9,413.5,80.1,412.3,80.1z"/>
	<path class="st0" d="M284.6,44.1c-4.4,0-8.6,0-13-0.1c-2.2-0.9-0.5-2.7,0.4-4.2c4.5-6.6,9.3-12.5,15-17.9c3.3-3.2,7.1-5.5,11.1-6.8
		c5.7-2.1,8.6-0.5,10,4.8c0.8,3.1,1.3,3.1,4.1,0.8c4.2-3.6,4.5-6.4,1-8.7c-5.1-3.5-11.1-3.1-17.9,0.8c-2.6,1.4-5.3,3.3-7.7,5.4
		c-1.2,1-2.3,2.2-3.6,1.4c-0.3,0-0.4-0.1-0.8-0.1c6.6-7,19.7-15.8,29.3-11.3c0.3,0.1,0.8,0.3,1,0.4c2.2,2.1,5.5,3.1,4.5,7.6
		c-1,4.8-4.9,6.8-8.2,9.3c-1.9,1.4-3.2,1-3.3-1.2c0-0.3-0.1-0.5-0.1-0.9c0.1-7-4.6-7.4-10.7-4.5c-4.2,2.1-7.8,5.4-11.2,9.1
		c-3.3,3.6-6.6,7.6-9.3,11.7c-2.2,3.1-2.1,3.6,0.8,4C278.6,43.6,281.9,43,284.6,44.1z"/>
	<path class="st0" d="M533.2,86.5c0.1-0.4,0.1-0.8,0.3-1.2c4.4,4.4,9.6,0.4,14.5-3.3c4.4-3.3,8.6-7.3,12.8-10.8
		c0.9-0.8,1.8-2.1,2.7-1.3c0.8,0.5,0.3,2.1,0,3.1c-0.3,1.6-1,3.1-2.3,4.4c-6.2,5.5-12.2,10.8-18.9,14.7c-7.6,4.4-14,4.6-18.9-0.3
		c-1.3-1.2-2.4-2.6-1.9-5.3c0.3-0.3,0.5-0.4,0.9-0.4c0.8,0.1,1.2,0.4,1.4,1.2c2.2,6.7,12.5,6.2,18.9,2.1c6.3-4,11.8-9.5,17.6-14.4
		c-3.5,1.9-6.6,4.9-9.6,7.6c-3.3,2.7-6.8,4.9-10.4,6.7c-2.2,1-4.2,1.3-5.9,0.1C533.3,88.8,532.2,88.2,533.2,86.5z"/>
	<path class="st0" d="M458.3,33.2c-1.8,0.1-2.6-1.2-2.1-3.7c0.9-3.7,5.1-7.7,8-7.7c2.4,0,3.7,1.8,3.2,4.2
		C466.6,29.5,462.1,33.2,458.3,33.2z"/>
	<path class="st0" d="M479.3,62.6c-0.1,0.8-0.3,1.4-0.4,2.2c0.8,1.2,0,2.3-0.5,3.7c-2.6,4.8-5.7,9.5-8,14.3
		c-0.9,1.6-1.4,3.3-1.9,4.9c-0.5,2.9,0,3.6,2.7,2.4c4.5-1.9,8.5-5.8,12.5-8.7c1.2-0.8,2.2-1.8,3.5-2.2c1.2-0.3,2.4-0.3,2.4,1
		c0,3.5,1.2,6.6,1,10c-0.1,0.3-0.4,0.5-0.8,0.9c-2.1-1.2-2.6-3.3-2.3-6.2c0.3-3.3-0.3-3.5-3.1-1.4c-4.4,3.2-8.6,6.6-13.1,9.1
		c-4.4,2.4-6.7,0.9-5.4-4.2c1.6-6.2,4.9-11.8,8.2-17.3C475.6,68.4,477.6,65.6,479.3,62.6z"/>
	<path class="st0" d="M489.8,91.3c0.1-0.3,0.3-0.5,0.3-0.9c0.9-0.9,1.8-0.9,2.4-0.5c7.8,3.5,15.7-0.4,23.8-7.3
		c0.8-0.5,1.4-1.3,2.2-1.9c1.9-1.4,3.7-2.3,4.8-0.4c1,1.8,1.2,3.7-1.3,5.8c-0.3,0-0.4,0.1-0.8,0.1c-0.4-1.3-0.1-2.7,0-4.5
		c-5.8,4.1-11.1,9.1-17.3,11.1c-2.9,1.2-5.9,2.2-8.6,1.2C493.2,93.7,491.4,92.9,489.8,91.3z"/>
	<path class="st0" d="M214.3,85c0-0.1,0.1-0.4,0.1-0.5c0.9-0.4,1.8-0.9,2.6-1.3c1.4-0.8,2.4-2.4,4.1-2.7c0,0.1,0.1,0.1,0.1,0.3
		C220.5,84.6,216.9,86.9,214.3,85z"/>
	<path class="st0" d="M495.4,94.1c2.7,0.1,5.7-0.5,8.6-1.2C500.8,95.3,498.1,95.1,495.4,94.1z"/>
	<path class="st0" d="M221.3,80.2c-1.3,1-2.4,2.6-4.1,2.7c1.8-1.8,3.3-3.5,5.4-4.8C222,78.9,221.5,79.7,221.3,80.2z"/>
	<path class="st0" d="M214.3,85c2.9,0,5.1-1.9,7.1-4.5c4.5-4.5,7.3-10,9.9-15.6c1.3-2.9,3.2-5.7,4-8.9c0.5-2.4,0.1-3.6-2.3-2.6
		c-2.1,0.9-4,0.5-5.9,0.5c-1.2,0-2.9,0.5-2.3-1.8c0.4-1.9,2.1-3.5,3.5-3.5c2.7,0,5.7-1.6,8.5-1.6c2.4,0,4-1.4,5.1-4.2
		c3.7-8.2,8.1-16.2,16.1-21.3c2.2-1.4,1.3-3.1,0-3.3c-8.9-1.6-17.3-4.8-27.6-1.4c-2.6,0.9-5.1,1.4-7.7,3.1c-4.8,3.1-5.9,9-3.5,12.1
		c1,1.3,2.1,2.4,3.3,3.3c0.9,0.5,0.9,1.4,0.5,2.6c-0.9,3.5-1.9,4.4-4.1,2.7c-3.2-2.2-5.9-4.8-6.8-9.3c-1.3-6.8,3.3-15.6,10.3-19.8
		c9.8-5.8,18.5-5.7,27.1-3.7c5.3,1.2,10,2.9,15.8,2.6c2.2-0.1,4.2,0,6.6-1.2c0.9-0.4,2.2-0.8,2.7,0.3c0.5,1-0.5,2.1-1.3,3.1
		c-2.7,4.1-6.8,6.7-9.8,10.8c-4.2,5.9-8.2,12.1-11.8,18.4c-1.4,2.6-0.9,3.6,1.3,3.5c3.3-0.1,6.8-1.3,10.2-1.2c0.9,0,1.4-0.8,2.1-1.6
		c5.4-8.6,11.9-16.3,18.8-23.5c5.1-4.4,10.3-8.6,16.2-10.3c6.6-2.1,12.2-1.4,16.1,3.2c2.1,2.6,1.6,4.4-1.4,7.7
		c-0.8,0.8-1.6,1.4-2.3,2.2c-4.5,3.6-4.5,3.6-5.3-1.2c-1-5.9-5.3-7.1-12.1-3.2c-7.8,4.4-13.6,11.7-19.2,19.2c-1.6,2.2-4.2,4.1-4,7.1
		c3.2,1.2,7,0.3,10.4,0.8c1.2,0.1,3.3-0.9,2.7,1.6c-0.5,2.2-2.3,3.7-4.4,4c-3.2,0.3-6.6,0.4-9.6,0.3c-2.9-0.1-4.4,1-6.2,4.5
		c-2.6,5.5-4.1,11.1-5.7,16.7c-1,3.5-0.8,6.6,0.1,9.5c1,3.7,4.9,4.2,10.7,1.2c3.6-1.9,7-4.2,10.4-6.4c4.1-2.6,5.8-7,8.5-10.8
		c6.2-9,13.6-14.8,22.5-18.5c5.4-2.2,10.3-2.2,15.2-1.3c1.9,0.3,2.2,1.3,1.2,3.3c-3.3,7.4-6.8,14.8-10.2,22.2
		c-0.5,1.4-1.2,2.9-1.6,4.4s-1,2.9,0.1,3.7c1.2,0.9,2.4,0,3.6-0.8c2.7-1.6,5.4-3.7,7.8-5.9c5.7-4.9,11.3-9.9,17-15
		c2.6-2.3,2.6-3.3,0.4-4.5c-3.1-1.6-4-4-2.3-7.1c1.4-3.2,6.4-6.6,9.1-6.3c1.3,0.1,1.6,1.2,1.2,2.4c-0.4,1.2-1,2.4-1.8,3.6
		c-2.2,3.2-1.9,4.6,1,4.9c2.3,0.1,4.8,0.1,7.3,0.1c1.8,0,2.7,0.1,1,2.7c-4.5,6.6-8.9,13.1-13.2,19.7c-0.8,1-1.3,2.1-1.4,3.2
		c-0.9,1.8-3.3,3.7-2.2,5.4c1.3,1.9,3.5-0.3,5.3-1.4c5.8-4.1,11.1-8.9,16.4-13.9c1.8-1.6,2.3-3.1,2.3-5.1c-0.1-7,4.5-14.3,11.1-17.6
		c2.6-1.3,4.9-0.9,7.4-0.9c1.6,0,1.4,1.3,0.5,2.9c-1.6,2.9-4.2,4-6.6,4.6c-2.1,0.5-2.4,1.3-2.2,3.3c0.4,3.7,1.9,6.8,3.5,9.8
		c2.1,3.5,3.3,7-0.5,12.1c-0.4,0.5-0.9,1.6-0.3,2.1s1.2-0.3,1.6-0.8c3.6-2.6,7.1-5.3,10.8-8s4.6-7,6.6-10.7
		c7.1-13.5,13.6-27.4,21.2-40.7c2.2-3.7,5.7-5.5,8.9-4.9c1.8,0.3,1.3,1.9,0.5,3.2c-2.3,4.5-4.6,9-7,13.5
		c-5.3,10-10.4,20.1-15.7,30.2c-0.1,0.3,0,0.5-0.1,1c2.2-1,3.6-3.2,5.3-4.6c4.8-4.4,9.8-8.6,15.6-9.5c5.3-0.8,6.3,1.2,4.1,7
		c-2.1,5.3-5.4,10-7.8,15c-1.4,2.9-3.3,5.7-4.4,8.7c-0.3,0.9-0.5,1.9,0,2.4c0.8,0.8,1.8,0,2.4-0.8c3.5-2.9,7.1-5.5,10.3-8.9
		c3.1-3.1,4.1-7.4,6.2-11.1c1.2-2.2,2.3-4.2,3.6-6.3c2.2-3.3,5.7-4.9,8.6-4.4c1.3,0.3,1.2,1.3,0.4,2.4c-3.2,5.9-6.6,11.9-9.6,17.9
		c-1.9,4-4.2,7.7-5.3,11.8c-0.3,1.2-0.8,2.6,0.3,3.2c0.9,0.5,2.1,0.1,3.2-0.8c3.6-3.1,7.3-6.2,10.9-9.3c2.7-2.6,3.6-6.3,5.4-9.5
		c2.1-3.7,4-7.4,6.2-11.1c2.1-3.5,6.6-5.7,9.3-4.5c1,0.4,0.9,1.3,0.1,2.3c-1.2,1.8-2.1,3.6-2.7,5.5c-2.1,2.6-3.6,5.5-4.8,9.3
		c2.7-1.9,4.4-4.1,6.3-5.9c4.5-4.5,9-8.6,14.4-11.1c0.5-0.3,1.2-0.5,1.8-0.8c6.4-1.8,8.1,0.5,5.1,7.6c-2.9,6.8-7.1,13.2-10.7,19.8
		c-0.3,0.4-0.5,0.9-0.8,1.2c-0.5,1.4-1.8,3.2-0.9,4.1c1,1.2,2.3-0.5,3.6-1.4c0.1-0.1,0.3-0.3,0.5-0.4c4.6-2.9,7.8-7.1,10.7-12.3
		c4.4-8.5,10.9-14.4,18.8-17.6c4.6-1.9,9.1-1.8,12.8,0c3.3,1.4,3.3,7.3,0.1,12.2c-3.6,5.7-13.5,12.8-18.9,8.9
		c-1.2-0.9-1.8-2.1-2.6-3.1c-0.8-0.9-1.6-1-2.6,0.8c-2.9,4.9-4.6,9.9-4.4,15c0.4,4.8,4.1,6.8,8.7,4.6c6.4-3.1,11.9-8,17.5-13
		c2.7-2.6,3.3-6.3,5.4-9.3c7.1-10.7,17.7-19.2,29.1-16.3c3.1,0.8,4.4,2.9,3.7,6.7c-0.9,5.4-3.7,9.6-8.5,12.8
		c-4.4,3.1-8.7,4.6-12.5,2.3c-0.8-0.4-1.3-1.2-1.9-1.9c-1.9-2.6-2.1-2.6-4.4,1c-3.2,4.9-4.4,14-2.2,16.8c2.6,2.9,5.3,2.7,10.4-0.4
		c5.8-3.5,10.9-8.7,16.3-13c0.9-0.8,1.8-1.3,3.1-2.3c-0.3,2.1-0.3,3.6-1.9,5.1c-6.8,6.2-13.5,12.6-21.6,16.3
		c-6.8,3.2-16.8,2.1-17.5-5.8c0.1-0.3,0.3-0.8,0.3-1c0.3-1.8,1-4.1-0.4-4.8c-1.4-0.8-2.7,1.4-4.1,2.4c-5.3,4.2-10.4,8.5-16.6,9.5
		c-4.4,0.8-8-0.1-11.3-2.1c-1.4-2.2-2.3-4.6-1.6-8c0.5-2.9-0.5-2.7-2.6-1.2c-4.2,3.3-8.5,6.8-13,9.6c-1.2,0.8-2.2,1.3-3.3,1.6
		c-2.6,0.8-3.7-0.5-3.1-3.5c1.4-5.7,4.8-10.9,7.7-16.2c1.4-2.6,3.3-5.1,4.4-7.8c2.4-2.7,4-6.7,2.9-8c-1-1.4-3.7-0.8-7,2.1
		c-6.4,5.7-10.9,13.1-15.6,20.2c-2.1,3.2-3.7,6.6-5.5,9.8c-0.8,1.3-1.6,1.8-2.6,1.8c-1.2,0-2.3,0-3.5,0c-2.2,0.1-2.6-1-1.4-3.5
		c0.9-2.1,2.6-5.1,1.4-5.9c-1.3-1-3.3,1.9-5.1,3.2c-2.9,2.2-5.8,4.5-8.9,6.2c-2.3,1.2-4.8,2.2-6.4,0.5c-1.3-1.4-0.4-4,0.1-6.2
		c0-0.3,0.3-0.8,0.3-1c0.5-1.8,2.4-4.1,1.2-4.9c-1.2-0.8-2.9,1.8-4.4,2.9c-3.3,2.9-6.7,5.8-10.3,8.1c-1.9,1.2-3.7,2.2-5.1,1
		s0-3.3,0.5-4.9c0.8-2.1,1.8-4,2.7-5.8c3.5-6.2,6.6-12.3,9.1-18.8c2.1-4.9,0.8-7.1-3.7-5.8c-1.8,0.4-3.2,1.4-4.6,2.7
		c-6.6,5.8-11.7,12.8-15.6,20.8c-1.2,2.4-2.4,4.9-4.1,7.3c-2.1,3.2-5.7,4.5-8.1,3.2c-0.9-0.4-0.8-1.3-0.3-2.2
		c1.9-2.6,2.3-5.5,4.1-8.1c0.8-1,1.6-2.6,0.8-3.3c-0.8-0.8-1.9,0.5-2.7,1.3c-6.2,4.6-12.2,9.3-18.8,12.1c-5.8,2.3-10.9,2.1-15.2-1
		c-1.3-0.9-1.8-2.4-1.8-4.4c-0.1-1.9-0.9-1.6-2.2-0.1c-3.6,2.2-7,5.3-10.8,6.4c-3.7,1.2-5.3-0.4-4.2-4.6c1.2-5.4,4.8-9.9,7.6-14.7
		c1.8-2.9,3.7-5.7,5.5-8.6c0.4-0.8,1-1.6,0.5-2.2c-0.8-0.9-1.4,0.4-2.1,0.9c-8,6.7-16.2,13.4-24.2,20.1c-3.6,3.1-7.6,5.4-11.5,7.7
		c-4.8,2.7-6.8,1.3-5.7-4.1c0.1-0.8,0.4-1.3,0.5-2.1c0.1-0.9,0.9-1.9,0.1-2.4c-0.9-0.8-1.8,0.8-2.4,1.3c-4.4,3.7-8.7,7.1-14,8.2
		c-4.6,1-6.6-0.5-6.7-5.5c-0.1-5.8,1-6.3-5.1-1.9c-5.4,3.7-11.1,7.1-16.8,8.1c-8.6,1.4-10.3-3.1-8.9-11.7c1.2-7,3.2-14.1,6.7-21.1
		c0.5-1,0.9-2.2,1.3-3.3c0.9-2.1,0.5-2.9-1.4-2.7c-2.2,0.1-4.4,0.4-6.4,0.1c-3.2-0.4-5.3,1.8-6.7,4.9c-2.6,5.4-5.4,10.8-8.7,15.8
		c-4.5,7-9.6,13.4-17,16.2c-7.3,2.6-17.3,1.9-18.9-6.6c-0.5-2.7-0.4-5.4,1.8-8.2c1.3-1.6,7.3-3.5,8.9-3.1c1,0.3,0.8,1.3,0.5,2.3
		c-0.5,2.2-1,4.5-1,6.7C209.7,84.5,210.2,85.2,214.3,85z"/>
	<path d="M293.4,73.4c2.9-10.3,14.3-22.4,23.4-25.1c2.6-0.8,3.3,0,1.9,2.9c-3.5,7.4-7,14.8-10.7,22.1c-1.4,3.1-9.8,8.2-12.5,8.1
		c-1.8,0-2.6-0.9-2.9-2.6C292.5,77.1,292.9,75.3,293.4,73.4z"/>
	<path d="M362.1,87.4c-0.4,0-1.6,0-2.4-0.4c-4-2.3-5.8-6.2,0.8-12.1c0.1-0.1,0.3-0.4,0.5-0.4c2.4-1.4,4.6-5.9,7.3-4.4
		c2.9,1.8,4,11.1,2.1,14.1C368.2,87.4,365.5,87.4,362.1,87.4z"/>
	<path d="M556,58.1c-1,3.6-4.5,8-7.4,9.1c-2.4,1-5.9-0.5-7.3-3.2c-0.5-1.2-0.5-2.4,0.4-4c2.9-4,6.2-6.8,10.3-7.7
		C555.6,51.7,557.1,53.9,556,58.1z"/>
	<path class="st0" d="M512.4,67.4c-2.2,0.3-3.6-1-4.9-2.6c-1.6-1.9-1.3-4.1,1-6.7c3.3-4,6.8-6.8,11.2-7c2.7-0.1,4,1.4,3.5,4.6
		C522,62.1,517.1,67.4,512.4,67.4z"/>
	<path d="M521.6,57.5c-1,3.7-4.4,7.7-7.3,8.9c-2.3,0.9-5.5-0.9-6.7-3.5c-0.3-0.8-0.5-1.3,0-2.4c1.9-3.6,7.4-7.7,10.8-8
		C521.9,52.3,522.7,53.6,521.6,57.5z"/>
</g>
<g>
	<path class="st1" d="M143,108.2c-4.1,9.8-8.3,19.3-12.1,29.3c-1.7,4.5-3.9,4.6-7.1,3.6c-27.3-8-54.8-7.9-82.1,0
		c-4.7,1.3-6.7-0.8-8-5.4c-3.4-10.5-8.1-20.3-13.2-29.9c-2.2-4.1-3.9-8.5-9.2-8.7C7.6,97,6.6,93.2,7,89.2c0.5-3.7,2.9-5.7,5.7-5.8
		c3.1,0,5.8,1.8,6.3,6.2c0.2,3-1,6.3,1.7,8.7c4.6,4.4,8.3,11.5,15.5,8.1c6.9-3.3,5.7-10.6,5.1-17.3c-0.6-6.9-0.5-14.1-7.9-18
		c-3.3-1.7-2.9-6.7-1-10.3c1.9-3.3,4.8-4.4,8-2.8c3.4,1.7,5.1,4.7,4.5,9.2c-1.2,9.7,4.6,23.1,11.6,27.7c7,4.5,15.1,1.8,18.4-6.8
		c3.4-9.1,4.2-18.9,5.8-28.4c0.5-3.4-1.5-4.8-3.1-6.9c-3.4-4.1-3.7-8.9-0.2-13.1c3.3-3.9,7.4-3.5,10.6,0c3.6,4,3.7,9.3,0,12.8
		c-3.6,3.4-3.5,6.7-2.5,11c1.7,7.7,2.7,15.8,4.7,23.5c2.3,8.2,9.6,12,16,9.4c7.9-3,16-18.4,14.6-28.1c-0.6-4.5-0.4-8.5,4-10.3
		c3.6-1.6,6.9-0.5,8.6,3.5c2.1,4.7,0.7,8.6-3.1,11.6c-5.7,4.4-8.6,23.9-4.5,30.1c4.8,7.4,10,3.9,15.1,0.1
		C144.3,103.4,143.9,105.5,143,108.2z"/>
	<path class="st1" d="M123.6,157.9c-6.7-1.9-14-3.6-21.6-4.8c-19.6-2.9-38.7-1.3-57.8,4.1c-3,0.8-7.1,3.1-8.7-1.9
		c-1.7-5.9,3.1-6.7,6.5-7.6c27.3-7.9,54.7-8,82,0.1c3.1,1,7.1,1.6,6.3,7C129.5,158.5,126.9,158.5,123.6,157.9z"/>
	<path class="st1" d="M143,108.2c-0.7-1.6-1.5-3.1-2.2-4.8c2.9-4.2,6.7-7.7,5.7-14.4c-0.5-3.3,2.5-5.4,5.6-5.6
		c3.5-0.1,5.7,2.3,6.4,6c0.7,3.6-1,7.4-3.5,7.4C148,97,146.9,104.3,143,108.2z"/>
</g>
<ellipse class="st0" cx="349.6" cy="82.6" rx="1.9" ry="0.9"/>
<ellipse class="st0" cx="388.4" cy="73.9" rx="2.7" ry="1.1"/>
<ellipse transform="matrix(0.8353 -0.5498 0.5498 0.8353 23.7352 244.9742)" class="st0" cx="420.7" cy="82.9" rx="10.9" ry="1.9"/>
<ellipse transform="matrix(0.8085 -0.5885 0.5885 0.8085 35.0339 275.4133)" class="st0" cx="440.7" cy="83.9" rx="11.7" ry="0.9"/>
<ellipse transform="matrix(0.552 -0.8339 0.8339 0.552 141.6749 418.066)" class="st0" cx="459.9" cy="77.2" rx="15.1" ry="1.2"/>
<ellipse transform="matrix(0.755 -0.6557 0.6557 0.755 77.7205 325.6197)" class="st0" cx="474.6" cy="58.8" rx="11" ry="1"/>
<ellipse transform="matrix(0.8085 -0.5885 0.5885 0.8085 43.4214 298.9243)" class="st0" cx="481" cy="82.7" rx="12.2" ry="1.9"/>
</svg>
